<svg class="rich-terminal" viewBox="0 0 994 635.5999999999999" xmlns="http://www.w3.org/2000/svg">
    <!-- Generated with Rich https://www.textualize.io -->
    <style>

    @font-face {
        font-family: "Fira Code";
        src: local("FiraCode-Regular"),
                url("https://cdnjs.cloudflare.com/ajax/libs/firacode/6.2.0/woff2/FiraCode-Regular.woff2") format("woff2"),
                url("https://cdnjs.cloudflare.com/ajax/libs/firacode/6.2.0/woff/FiraCode-Regular.woff") format("woff");
        font-style: normal;
        font-weight: 400;
    }
    @font-face {
        font-family: "Fira Code";
        src: local("FiraCode-Bold"),
                url("https://cdnjs.cloudflare.com/ajax/libs/firacode/6.2.0/woff2/FiraCode-Bold.woff2") format("woff2"),
                url("https://cdnjs.cloudflare.com/ajax/libs/firacode/6.2.0/woff/FiraCode-Bold.woff") format("woff");
        font-style: bold;
        font-weight: 700;
    }

    .terminal-4269009678-matrix {
        font-family: Fira Code, monospace;
        font-size: 20px;
        line-height: 24.4px;
        font-variant-east-asian: full-width;
    }

    .terminal-4269009678-title {
        font-size: 18px;
        font-weight: bold;
        font-family: arial;
    }

    .terminal-4269009678-r1 { fill: #c5c8c6 }
.terminal-4269009678-r2 { fill: #15141f;font-weight: bold }
.terminal-4269009678-r3 { fill: #9aa0a6 }
.terminal-4269009678-r4 { fill: #e0e0e0 }
.terminal-4269009678-r5 { fill: #6e7681 }
.terminal-4269009678-r6 { fill: #3fb950;font-weight: bold }
.terminal-4269009678-r7 { fill: #e0e0e0;font-weight: bold }
.terminal-4269009678-r8 { fill: #3a3f47 }
.terminal-4269009678-r9 { fill: #6e7681;font-weight: bold }
.terminal-4269009678-r10 { fill: #9b8cff }
.terminal-4269009678-r11 { fill: #9b8cff;font-weight: bold }
.terminal-4269009678-r12 { fill: #121212 }
.terminal-4269009678-r13 { fill: #c8d0fb;font-weight: bold }
.terminal-4269009678-r14 { fill: #9aa0a6;font-weight: bold }
    </style>

    <defs>
    <clipPath id="terminal-4269009678-clip-terminal">
      <rect x="0" y="0" width="975.0" height="584.5999999999999" />
    </clipPath>
    <clipPath id="terminal-4269009678-line-0">
    <rect x="0" y="1.5" width="976" height="24.65"/>
            </clipPath>
<clipPath id="terminal-4269009678-line-1">
    <rect x="0" y="25.9" width="976" height="24.65"/>
            </clipPath>
<clipPath id="terminal-4269009678-line-2">
    <rect x="0" y="50.3" width="976" height="24.65"/>
            </clipPath>
<clipPath id="terminal-4269009678-line-3">
    <rect x="0" y="74.7" width="976" height="24.65"/>
            </clipPath>
<clipPath id="terminal-4269009678-line-4">
    <rect x="0" y="99.1" width="976" height="24.65"/>
            </clipPath>
<clipPath id="terminal-4269009678-line-5">
    <rect x="0" y="123.5" width="976" height="24.65"/>
            </clipPath>
<clipPath id="terminal-4269009678-line-6">
    <rect x="0" y="147.9" width="976" height="24.65"/>
            </clipPath>
<clipPath id="terminal-4269009678-line-7">
    <rect x="0" y="172.3" width="976" height="24.65"/>
            </clipPath>
<clipPath id="terminal-4269009678-line-8">
    <rect x="0" y="196.7" width="976" height="24.65"/>
            </clipPath>
<clipPath id="terminal-4269009678-line-9">
    <rect x="0" y="221.1" width="976" height="24.65"/>
            </clipPath>
<clipPath id="terminal-4269009678-line-10">
    <rect x="0" y="245.5" width="976" height="24.65"/>
            </clipPath>
<clipPath id="terminal-4269009678-line-11">
    <rect x="0" y="269.9" width="976" height="24.65"/>
            </clipPath>
<clipPath id="terminal-4269009678-line-12">
    <rect x="0" y="294.3" width="976" height="24.65"/>
            </clipPath>
<clipPath id="terminal-4269009678-line-13">
    <rect x="0" y="318.7" width="976" height="24.65"/>
            </clipPath>
<clipPath id="terminal-4269009678-line-14">
    <rect x="0" y="343.1" width="976" height="24.65"/>
            </clipPath>
<clipPath id="terminal-4269009678-line-15">
    <rect x="0" y="367.5" width="976" height="24.65"/>
            </clipPath>
<clipPath id="terminal-4269009678-line-16">
    <rect x="0" y="391.9" width="976" height="24.65"/>
            </clipPath>
<clipPath id="terminal-4269009678-line-17">
    <rect x="0" y="416.3" width="976" height="24.65"/>
            </clipPath>
<clipPath id="terminal-4269009678-line-18">
    <rect x="0" y="440.7" width="976" height="24.65"/>
            </clipPath>
<clipPath id="terminal-4269009678-line-19">
    <rect x="0" y="465.1" width="976" height="24.65"/>
            </clipPath>
<clipPath id="terminal-4269009678-line-20">
    <rect x="0" y="489.5" width="976" height="24.65"/>
            </clipPath>
<clipPath id="terminal-4269009678-line-21">
    <rect x="0" y="513.9" width="976" height="24.65"/>
            </clipPath>
<clipPath id="terminal-4269009678-line-22">
    <rect x="0" y="538.3" width="976" height="24.65"/>
            </clipPath>
    </defs>

    <rect fill="#292929" stroke="rgba(255,255,255,0.35)" stroke-width="1" x="1" y="1" width="992" height="633.6" rx="8"/><text class="terminal-4269009678-title" fill="#c5c8c6" text-anchor="middle" x="496" y="27">SpikeApp</text>
            <g transform="translate(26,22)">
            <circle cx="0" cy="0" r="7" fill="#ff5f57"/>
            <circle cx="22" cy="0" r="7" fill="#febc2e"/>
            <circle cx="44" cy="0" r="7" fill="#28c840"/>
            </g>
        
    <g transform="translate(9, 41)" clip-path="url(#terminal-4269009678-clip-terminal)">
    <rect fill="#121212" x="0" y="1.5" width="976" height="24.65" shape-rendering="crispEdges"/><rect fill="#121212" x="0" y="25.9" width="12.2" height="24.65" shape-rendering="crispEdges"/><rect fill="#9b8cff" x="12.2" y="25.9" width="85.4" height="24.65" shape-rendering="crispEdges"/><rect fill="#121212" x="97.6" y="25.9" width="268.4" height="24.65" shape-rendering="crispEdges"/><rect fill="#121212" x="366" y="25.9" width="219.6" height="24.65" shape-rendering="crispEdges"/><rect fill="#121212" x="585.6" y="25.9" width="378.2" height="24.65" shape-rendering="crispEdges"/><rect fill="#121212" x="963.8" y="25.9" width="12.2" height="24.65" shape-rendering="crispEdges"/><rect fill="#121212" x="0" y="50.3" width="976" height="24.65" shape-rendering="crispEdges"/><rect fill="#121212" x="0" y="74.7" width="12.2" height="24.65" shape-rendering="crispEdges"/><rect fill="#121212" x="12.2" y="74.7" width="24.4" height="24.65" shape-rendering="crispEdges"/><rect fill="#121212" x="36.6" y="74.7" width="97.6" height="24.65" shape-rendering="crispEdges"/><rect fill="#121212" x="134.2" y="74.7" width="24.4" height="24.65" shape-rendering="crispEdges"/><rect fill="#121212" x="158.6" y="74.7" width="24.4" height="24.65" shape-rendering="crispEdges"/><rect fill="#121212" x="183" y="74.7" width="109.8" height="24.65" shape-rendering="crispEdges"/><rect fill="#121212" x="292.8" y="74.7" width="24.4" height="24.65" shape-rendering="crispEdges"/><rect fill="#121212" x="317.2" y="74.7" width="24.4" height="24.65" shape-rendering="crispEdges"/><rect fill="#121212" x="341.6" y="74.7" width="97.6" height="24.65" shape-rendering="crispEdges"/><rect fill="#121212" x="439.2" y="74.7" width="24.4" height="24.65" shape-rendering="crispEdges"/><rect fill="#121212" x="463.6" y="74.7" width="24.4" height="24.65" shape-rendering="crispEdges"/><rect fill="#121212" x="488" y="74.7" width="109.8" height="24.65" shape-rendering="crispEdges"/><rect fill="#121212" x="597.8" y="74.7" width="24.4" height="24.65" shape-rendering="crispEdges"/><rect fill="#121212" x="622.2" y="74.7" width="24.4" height="24.65" shape-rendering="crispEdges"/><rect fill="#121212" x="646.6" y="74.7" width="109.8" height="24.65" shape-rendering="crispEdges"/><rect fill="#121212" x="756.4" y="74.7" width="24.4" height="24.65" shape-rendering="crispEdges"/><rect fill="#121212" x="780.8" y="74.7" width="24.4" height="24.65" shape-rendering="crispEdges"/><rect fill="#121212" x="805.2" y="74.7" width="109.8" height="24.65" shape-rendering="crispEdges"/><rect fill="#121212" x="915" y="74.7" width="61" height="24.65" shape-rendering="crispEdges"/><rect fill="#121212" x="0" y="99.1" width="12.2" height="24.65" shape-rendering="crispEdges"/><rect fill="#121212" x="12.2" y="99.1" width="12.2" height="24.65" shape-rendering="crispEdges"/><rect fill="#121212" x="24.4" y="99.1" width="109.8" height="24.65" shape-rendering="crispEdges"/><rect fill="#121212" x="134.2" y="99.1" width="36.6" height="24.65" shape-rendering="crispEdges"/><rect fill="#121212" x="170.8" y="99.1" width="134.2" height="24.65" shape-rendering="crispEdges"/><rect fill="#121212" x="305" y="99.1" width="24.4" height="24.65" shape-rendering="crispEdges"/><rect fill="#121212" x="329.4" y="99.1" width="97.6" height="24.65" shape-rendering="crispEdges"/><rect fill="#121212" x="427" y="99.1" width="48.8" height="24.65" shape-rendering="crispEdges"/><rect fill="#121212" x="475.8" y="99.1" width="48.8" height="24.65" shape-rendering="crispEdges"/><rect fill="#121212" x="524.6" y="99.1" width="268.4" height="24.65" shape-rendering="crispEdges"/><rect fill="#121212" x="793" y="99.1" width="183" height="24.65" shape-rendering="crispEdges"/><rect fill="#121212" x="0" y="123.5" width="12.2" height="24.65" shape-rendering="crispEdges"/><rect fill="#121212" x="12.2" y="123.5" width="951.6" height="24.65" shape-rendering="crispEdges"/><rect fill="#121212" x="963.8" y="123.5" width="12.2" height="24.65" shape-rendering="crispEdges"/><rect fill="#121212" x="0" y="147.9" width="976" height="24.65" shape-rendering="crispEdges"/><rect fill="#121212" x="0" y="172.3" width="24.4" height="24.65" shape-rendering="crispEdges"/><rect fill="#121212" x="24.4" y="172.3" width="24.4" height="24.65" shape-rendering="crispEdges"/><rect fill="#121212" x="48.8" y="172.3" width="134.2" height="24.65" shape-rendering="crispEdges"/><rect fill="#121212" x="183" y="172.3" width="756.4" height="24.65" shape-rendering="crispEdges"/><rect fill="#003054" x="939.4" y="172.3" width="12.2" height="24.65" shape-rendering="crispEdges"/><rect fill="#121212" x="951.6" y="172.3" width="24.4" height="24.65" shape-rendering="crispEdges"/><rect fill="#121212" x="0" y="196.7" width="24.4" height="24.65" shape-rendering="crispEdges"/><rect fill="#121212" x="24.4" y="196.7" width="12.2" height="24.65" shape-rendering="crispEdges"/><rect fill="#121212" x="36.6" y="196.7" width="24.4" height="24.65" shape-rendering="crispEdges"/><rect fill="#121212" x="61" y="196.7" width="219.6" height="24.65" shape-rendering="crispEdges"/><rect fill="#121212" x="280.6" y="196.7" width="646.6" height="24.65" shape-rendering="crispEdges"/><rect fill="#121212" x="927.2" y="196.7" width="12.2" height="24.65" shape-rendering="crispEdges"/><rect fill="#003054" x="939.4" y="196.7" width="12.2" height="24.65" shape-rendering="crispEdges"/><rect fill="#121212" x="951.6" y="196.7" width="24.4" height="24.65" shape-rendering="crispEdges"/><rect fill="#121212" x="0" y="221.1" width="24.4" height="24.65" shape-rendering="crispEdges"/><rect fill="#121212" x="24.4" y="221.1" width="12.2" height="24.65" shape-rendering="crispEdges"/><rect fill="#121212" x="36.6" y="221.1" width="24.4" height="24.65" shape-rendering="crispEdges"/><rect fill="#121212" x="61" y="221.1" width="195.2" height="24.65" shape-rendering="crispEdges"/><rect fill="#121212" x="256.2" y="221.1" width="671" height="24.65" shape-rendering="crispEdges"/><rect fill="#121212" x="927.2" y="221.1" width="12.2" height="24.65" shape-rendering="crispEdges"/><rect fill="#003054" x="939.4" y="221.1" width="12.2" height="24.65" shape-rendering="crispEdges"/><rect fill="#121212" x="951.6" y="221.1" width="24.4" height="24.65" shape-rendering="crispEdges"/><rect fill="#121212" x="0" y="245.5" width="24.4" height="24.65" shape-rendering="crispEdges"/><rect fill="#121212" x="24.4" y="245.5" width="12.2" height="24.65" shape-rendering="crispEdges"/><rect fill="#121212" x="36.6" y="245.5" width="24.4" height="24.65" shape-rendering="crispEdges"/><rect fill="#121212" x="61" y="245.5" width="0" height="24.65" shape-rendering="crispEdges"/><rect fill="#121212" x="61" y="245.5" width="866.2" height="24.65" shape-rendering="crispEdges"/><rect fill="#121212" x="927.2" y="245.5" width="12.2" height="24.65" shape-rendering="crispEdges"/><rect fill="#003054" x="939.4" y="245.5" width="12.2" height="24.65" shape-rendering="crispEdges"/><rect fill="#121212" x="951.6" y="245.5" width="24.4" height="24.65" shape-rendering="crispEdges"/><rect fill="#121212" x="0" y="269.9" width="24.4" height="24.65" shape-rendering="crispEdges"/><rect fill="#121212" x="24.4" y="269.9" width="12.2" height="24.65" shape-rendering="crispEdges"/><rect fill="#121212" x="36.6" y="269.9" width="24.4" height="24.65" shape-rendering="crispEdges"/><rect fill="#9b8cff" x="61" y="269.9" width="36.6" height="24.65" shape-rendering="crispEdges"/><rect fill="#121212" x="97.6" y="269.9" width="231.8" height="24.65" shape-rendering="crispEdges"/><rect fill="#2c2a44" x="329.4" y="269.9" width="36.6" height="24.65" shape-rendering="crispEdges"/><rect fill="#121212" x="366" y="269.9" width="207.4" height="24.65" shape-rendering="crispEdges"/><rect fill="#121212" x="573.4" y="269.9" width="353.8" height="24.65" shape-rendering="crispEdges"/><rect fill="#121212" x="927.2" y="269.9" width="12.2" height="24.65" shape-rendering="crispEdges"/><rect fill="#003054" x="939.4" y="269.9" width="12.2" height="24.65" shape-rendering="crispEdges"/><rect fill="#121212" x="951.6" y="269.9" width="24.4" height="24.65" shape-rendering="crispEdges"/><rect fill="#121212" x="0" y="294.3" width="24.4" height="24.65" shape-rendering="crispEdges"/><rect fill="#121212" x="24.4" y="294.3" width="915" height="24.65" shape-rendering="crispEdges"/><rect fill="#003054" x="939.4" y="294.3" width="12.2" height="24.65" shape-rendering="crispEdges"/><rect fill="#121212" x="951.6" y="294.3" width="24.4" height="24.65" shape-rendering="crispEdges"/><rect fill="#121212" x="0" y="318.7" width="939.4" height="24.65" shape-rendering="crispEdges"/><rect fill="#003054" x="939.4" y="318.7" width="12.2" height="24.65" shape-rendering="crispEdges"/><rect fill="#121212" x="951.6" y="318.7" width="24.4" height="24.65" shape-rendering="crispEdges"/><rect fill="#121212" x="0" y="343.1" width="24.4" height="24.65" shape-rendering="crispEdges"/><rect fill="#121212" x="24.4" y="343.1" width="219.6" height="24.65" shape-rendering="crispEdges"/><rect fill="#121212" x="244" y="343.1" width="695.4" height="24.65" shape-rendering="crispEdges"/><rect fill="#003054" x="939.4" y="343.1" width="12.2" height="24.65" shape-rendering="crispEdges"/><rect fill="#121212" x="951.6" y="343.1" width="24.4" height="24.65" shape-rendering="crispEdges"/><rect fill="#121212" x="0" y="367.5" width="24.4" height="24.65" shape-rendering="crispEdges"/><rect fill="#121212" x="24.4" y="367.5" width="146.4" height="24.65" shape-rendering="crispEdges"/><rect fill="#121212" x="170.8" y="367.5" width="695.4" height="24.65" shape-rendering="crispEdges"/><rect fill="#121212" x="866.2" y="367.5" width="36.6" height="24.65" shape-rendering="crispEdges"/><rect fill="#121212" x="902.8" y="367.5" width="36.6" height="24.65" shape-rendering="crispEdges"/><rect fill="#003054" x="939.4" y="367.5" width="12.2" height="24.65" shape-rendering="crispEdges"/><rect fill="#121212" x="951.6" y="367.5" width="24.4" height="24.65" shape-rendering="crispEdges"/><rect fill="#121212" x="0" y="391.9" width="24.4" height="24.65" shape-rendering="crispEdges"/><rect fill="#121212" x="24.4" y="391.9" width="146.4" height="24.65" shape-rendering="crispEdges"/><rect fill="#121212" x="170.8" y="391.9" width="549" height="24.65" shape-rendering="crispEdges"/><rect fill="#121212" x="719.8" y="391.9" width="36.6" height="24.65" shape-rendering="crispEdges"/><rect fill="#121212" x="756.4" y="391.9" width="183" height="24.65" shape-rendering="crispEdges"/><rect fill="#003054" x="939.4" y="391.9" width="12.2" height="24.65" shape-rendering="crispEdges"/><rect fill="#121212" x="951.6" y="391.9" width="24.4" height="24.65" shape-rendering="crispEdges"/><rect fill="#121212" x="0" y="416.3" width="24.4" height="24.65" shape-rendering="crispEdges"/><rect fill="#121212" x="24.4" y="416.3" width="146.4" height="24.65" shape-rendering="crispEdges"/><rect fill="#121212" x="170.8" y="416.3" width="597.8" height="24.65" shape-rendering="crispEdges"/><rect fill="#121212" x="768.6" y="416.3" width="170.8" height="24.65" shape-rendering="crispEdges"/><rect fill="#003054" x="939.4" y="416.3" width="12.2" height="24.65" shape-rendering="crispEdges"/><rect fill="#121212" x="951.6" y="416.3" width="24.4" height="24.65" shape-rendering="crispEdges"/><rect fill="#121212" x="0" y="440.7" width="24.4" height="24.65" shape-rendering="crispEdges"/><rect fill="#121212" x="24.4" y="440.7" width="146.4" height="24.65" shape-rendering="crispEdges"/><rect fill="#121212" x="170.8" y="440.7" width="427" height="24.65" shape-rendering="crispEdges"/><rect fill="#121212" x="597.8" y="440.7" width="341.6" height="24.65" shape-rendering="crispEdges"/><rect fill="#000000" x="939.4" y="440.7" width="12.2" height="24.65" shape-rendering="crispEdges"/><rect fill="#121212" x="951.6" y="440.7" width="24.4" height="24.65" shape-rendering="crispEdges"/><rect fill="#121212" x="0" y="465.1" width="24.4" height="24.65" shape-rendering="crispEdges"/><rect fill="#121212" x="24.4" y="465.1" width="146.4" height="24.65" shape-rendering="crispEdges"/><rect fill="#121212" x="170.8" y="465.1" width="195.2" height="24.65" shape-rendering="crispEdges"/><rect fill="#121212" x="366" y="465.1" width="85.4" height="24.65" shape-rendering="crispEdges"/><rect fill="#121212" x="451.4" y="465.1" width="488" height="24.65" shape-rendering="crispEdges"/><rect fill="#000000" x="939.4" y="465.1" width="12.2" height="24.65" shape-rendering="crispEdges"/><rect fill="#121212" x="951.6" y="465.1" width="24.4" height="24.65" shape-rendering="crispEdges"/><rect fill="#121212" x="0" y="489.5" width="24.4" height="24.65" shape-rendering="crispEdges"/><rect fill="#121212" x="24.4" y="489.5" width="0" height="24.65" shape-rendering="crispEdges"/><rect fill="#121212" x="24.4" y="489.5" width="915" height="24.65" shape-rendering="crispEdges"/><rect fill="#000000" x="939.4" y="489.5" width="12.2" height="24.65" shape-rendering="crispEdges"/><rect fill="#121212" x="951.6" y="489.5" width="24.4" height="24.65" shape-rendering="crispEdges"/><rect fill="#121212" x="0" y="513.9" width="12.2" height="24.65" shape-rendering="crispEdges"/><rect fill="#121212" x="12.2" y="513.9" width="0" height="24.65" shape-rendering="crispEdges"/><rect fill="#121212" x="12.2" y="513.9" width="963.8" height="24.65" shape-rendering="crispEdges"/><rect fill="#121212" x="0" y="538.3" width="12.2" height="24.65" shape-rendering="crispEdges"/><rect fill="#2c2a44" x="12.2" y="538.3" width="36.6" height="24.65" shape-rendering="crispEdges"/><rect fill="#121212" x="48.8" y="538.3" width="170.8" height="24.65" shape-rendering="crispEdges"/><rect fill="#121212" x="219.6" y="538.3" width="24.4" height="24.65" shape-rendering="crispEdges"/><rect fill="#2c2a44" x="244" y="538.3" width="36.6" height="24.65" shape-rendering="crispEdges"/><rect fill="#121212" x="280.6" y="538.3" width="97.6" height="24.65" shape-rendering="crispEdges"/><rect fill="#121212" x="378.2" y="538.3" width="24.4" height="24.65" shape-rendering="crispEdges"/><rect fill="#2c2a44" x="402.6" y="538.3" width="61" height="24.65" shape-rendering="crispEdges"/><rect fill="#121212" x="463.6" y="538.3" width="85.4" height="24.65" shape-rendering="crispEdges"/><rect fill="#121212" x="549" y="538.3" width="24.4" height="24.65" shape-rendering="crispEdges"/><rect fill="#2c2a44" x="573.4" y="538.3" width="36.6" height="24.65" shape-rendering="crispEdges"/><rect fill="#121212" x="610" y="538.3" width="61" height="24.65" shape-rendering="crispEdges"/><rect fill="#121212" x="671" y="538.3" width="24.4" height="24.65" shape-rendering="crispEdges"/><rect fill="#2c2a44" x="695.4" y="538.3" width="36.6" height="24.65" shape-rendering="crispEdges"/><rect fill="#121212" x="732" y="538.3" width="109.8" height="24.65" shape-rendering="crispEdges"/><rect fill="#121212" x="841.8" y="538.3" width="24.4" height="24.65" shape-rendering="crispEdges"/><rect fill="#2c2a44" x="866.2" y="538.3" width="36.6" height="24.65" shape-rendering="crispEdges"/><rect fill="#121212" x="902.8" y="538.3" width="61" height="24.65" shape-rendering="crispEdges"/><rect fill="#121212" x="963.8" y="538.3" width="12.2" height="24.65" shape-rendering="crispEdges"/><rect fill="#121212" x="0" y="562.7" width="976" height="24.65" shape-rendering="crispEdges"/>
    <g class="terminal-4269009678-matrix">
    <text class="terminal-4269009678-r1" x="976" y="20" textLength="12.2" clip-path="url(#terminal-4269009678-line-0)">
</text><text class="terminal-4269009678-r2" x="12.2" y="44.4" textLength="85.4" clip-path="url(#terminal-4269009678-line-1)">&#160;spike&#160;</text><text class="terminal-4269009678-r3" x="97.6" y="44.4" textLength="268.4" clip-path="url(#terminal-4269009678-line-1)">&#160;&#160;PFCM7_d0ephys_Block2</text><text class="terminal-4269009678-r5" x="585.6" y="44.4" textLength="378.2" clip-path="url(#terminal-4269009678-line-1)">tridesclous2&#160;·&#160;run&#160;c7184d&#160;·&#160;raw</text><text class="terminal-4269009678-r1" x="976" y="44.4" textLength="12.2" clip-path="url(#terminal-4269009678-line-1)">
</text><text class="terminal-4269009678-r1" x="976" y="68.8" textLength="12.2" clip-path="url(#terminal-4269009678-line-2)">
</text><text class="terminal-4269009678-r6" x="12.2" y="93.2" textLength="24.4" clip-path="url(#terminal-4269009678-line-3)">&#160;✓</text><text class="terminal-4269009678-r7" x="36.6" y="93.2" textLength="97.6" clip-path="url(#terminal-4269009678-line-3)">&#160;1&#160;Data&#160;</text><text class="terminal-4269009678-r8" x="134.2" y="93.2" textLength="24.4" clip-path="url(#terminal-4269009678-line-3)">──</text><text class="terminal-4269009678-r6" x="158.6" y="93.2" textLength="24.4" clip-path="url(#terminal-4269009678-line-3)">&#160;✓</text><text class="terminal-4269009678-r7" x="183" y="93.2" textLength="109.8" clip-path="url(#terminal-4269009678-line-3)">&#160;2&#160;Probe&#160;</text><text class="terminal-4269009678-r8" x="292.8" y="93.2" textLength="24.4" clip-path="url(#terminal-4269009678-line-3)">──</text><text class="terminal-4269009678-r6" x="317.2" y="93.2" textLength="24.4" clip-path="url(#terminal-4269009678-line-3)">&#160;✓</text><text class="terminal-4269009678-r7" x="341.6" y="93.2" textLength="97.6" clip-path="url(#terminal-4269009678-line-3)">&#160;3&#160;Sort&#160;</text><text class="terminal-4269009678-r8" x="439.2" y="93.2" textLength="24.4" clip-path="url(#terminal-4269009678-line-3)">──</text><text class="terminal-4269009678-r9" x="463.6" y="93.2" textLength="24.4" clip-path="url(#terminal-4269009678-line-3)">&#160;·</text><text class="terminal-4269009678-r5" x="488" y="93.2" textLength="109.8" clip-path="url(#terminal-4269009678-line-3)">&#160;4&#160;Judge&#160;</text><text class="terminal-4269009678-r8" x="597.8" y="93.2" textLength="24.4" clip-path="url(#terminal-4269009678-line-3)">──</text><text class="terminal-4269009678-r9" x="622.2" y="93.2" textLength="24.4" clip-path="url(#terminal-4269009678-line-3)">&#160;·</text><text class="terminal-4269009678-r5" x="646.6" y="93.2" textLength="109.8" clip-path="url(#terminal-4269009678-line-3)">&#160;5&#160;Apply&#160;</text><text class="terminal-4269009678-r8" x="756.4" y="93.2" textLength="24.4" clip-path="url(#terminal-4269009678-line-3)">──</text><text class="terminal-4269009678-r9" x="780.8" y="93.2" textLength="24.4" clip-path="url(#terminal-4269009678-line-3)">&#160;·</text><text class="terminal-4269009678-r5" x="805.2" y="93.2" textLength="109.8" clip-path="url(#terminal-4269009678-line-3)">&#160;6&#160;Share&#160;</text><text class="terminal-4269009678-r1" x="976" y="93.2" textLength="12.2" clip-path="url(#terminal-4269009678-line-3)">
</text><text class="terminal-4269009678-r5" x="24.4" y="117.6" textLength="109.8" clip-path="url(#terminal-4269009678-line-4)">3&#160;streams</text><text class="terminal-4269009678-r5" x="170.8" y="117.6" textLength="134.2" clip-path="url(#terminal-4269009678-line-4)">16&#160;contacts</text><text class="terminal-4269009678-r5" x="329.4" y="117.6" textLength="97.6" clip-path="url(#terminal-4269009678-line-4)">12&#160;units</text><text class="terminal-4269009678-r5" x="475.8" y="117.6" textLength="48.8" clip-path="url(#terminal-4269009678-line-4)">0/12</text><text class="terminal-4269009678-r1" x="976" y="117.6" textLength="12.2" clip-path="url(#terminal-4269009678-line-4)">
</text><text class="terminal-4269009678-r8" x="12.2" y="142" textLength="951.6" clip-path="url(#terminal-4269009678-line-5)">──────────────────────────────────────────────────────────────────────────────</text><text class="terminal-4269009678-r1" x="976" y="142" textLength="12.2" clip-path="url(#terminal-4269009678-line-5)">
</text><text class="terminal-4269009678-r1" x="976" y="166.4" textLength="12.2" clip-path="url(#terminal-4269009678-line-6)">
</text><text class="terminal-4269009678-r10" x="24.4" y="190.8" textLength="24.4" clip-path="url(#terminal-4269009678-line-7)">╭─</text><text class="terminal-4269009678-r11" x="48.8" y="190.8" textLength="134.2" clip-path="url(#terminal-4269009678-line-7)">&#160;NEXT&#160;STEP&#160;</text><text class="terminal-4269009678-r10" x="183" y="190.8" textLength="756.4" clip-path="url(#terminal-4269009678-line-7)">─────────────────────────────────────────────────────────────╮</text><text class="terminal-4269009678-r1" x="976" y="190.8" textLength="12.2" clip-path="url(#terminal-4269009678-line-7)">
</text><text class="terminal-4269009678-r10" x="24.4" y="215.2" textLength="12.2" clip-path="url(#terminal-4269009678-line-8)">│</text><text class="terminal-4269009678-r7" x="61" y="215.2" textLength="219.6" clip-path="url(#terminal-4269009678-line-8)">Judge&#160;the&#160;12&#160;units</text><text class="terminal-4269009678-r10" x="927.2" y="215.2" textLength="12.2" clip-path="url(#terminal-4269009678-line-8)">│</text><text class="terminal-4269009678-r1" x="976" y="215.2" textLength="12.2" clip-path="url(#terminal-4269009678-line-8)">
</text><text class="terminal-4269009678-r10" x="24.4" y="239.6" textLength="12.2" clip-path="url(#terminal-4269009678-line-9)">│</text><text class="terminal-4269009678-r3" x="61" y="239.6" textLength="195.2" clip-path="url(#terminal-4269009678-line-9)">one&#160;key&#160;per&#160;unit</text><text class="terminal-4269009678-r10" x="927.2" y="239.6" textLength="12.2" clip-path="url(#terminal-4269009678-line-9)">│</text><text class="terminal-4269009678-r1" x="976" y="239.6" textLength="12.2" clip-path="url(#terminal-4269009678-line-9)">
</text><text class="terminal-4269009678-r10" x="24.4" y="264" textLength="12.2" clip-path="url(#terminal-4269009678-line-10)">│</text><text class="terminal-4269009678-r10" x="927.2" y="264" textLength="12.2" clip-path="url(#terminal-4269009678-line-10)">│</text><text class="terminal-4269009678-r1" x="976" y="264" textLength="12.2" clip-path="url(#terminal-4269009678-line-10)">
</text><text class="terminal-4269009678-r10" x="24.4" y="288.4" textLength="12.2" clip-path="url(#terminal-4269009678-line-11)">│</text><text class="terminal-4269009678-r2" x="61" y="288.4" textLength="36.6" clip-path="url(#terminal-4269009678-line-11)">&#160;↵&#160;</text><text class="terminal-4269009678-r4" x="97.6" y="288.4" textLength="231.8" clip-path="url(#terminal-4269009678-line-11)">&#160;start&#160;judging&#160;&#160;&#160;&#160;&#160;</text><text class="terminal-4269009678-r13" x="329.4" y="288.4" textLength="36.6" clip-path="url(#terminal-4269009678-line-11)">&#160;s&#160;</text><text class="terminal-4269009678-r5" x="366" y="288.4" textLength="207.4" clip-path="url(#terminal-4269009678-line-11)">&#160;not&#160;now&#160;(1&#160;of&#160;2)</text><text class="terminal-4269009678-r10" x="927.2" y="288.4" textLength="12.2" clip-path="url(#terminal-4269009678-line-11)">│</text><text class="terminal-4269009678-r1" x="976" y="288.4" textLength="12.2" clip-path="url(#terminal-4269009678-line-11)">
</text><text class="terminal-4269009678-r10" x="24.4" y="312.8" textLength="915" clip-path="url(#terminal-4269009678-line-12)">╰─────────────────────────────────────────────────────────────────────────╯</text><text class="terminal-4269009678-r1" x="976" y="312.8" textLength="12.2" clip-path="url(#terminal-4269009678-line-12)">
</text><text class="terminal-4269009678-r1" x="976" y="337.2" textLength="12.2" clip-path="url(#terminal-4269009678-line-13)">
</text><text class="terminal-4269009678-r14" x="24.4" y="361.6" textLength="219.6" clip-path="url(#terminal-4269009678-line-14)">WHERE&#160;THINGS&#160;STAND</text><text class="terminal-4269009678-r1" x="976" y="361.6" textLength="12.2" clip-path="url(#terminal-4269009678-line-14)">
</text><text class="terminal-4269009678-r5" x="24.4" y="386" textLength="146.4" clip-path="url(#terminal-4269009678-line-15)">Recording&#160;&#160;&#160;</text><text class="terminal-4269009678-r4" x="170.8" y="386" textLength="695.4" clip-path="url(#terminal-4269009678-line-15)">PFCM7_d0ephys_Block2&#160;·&#160;16&#160;neural&#160;+&#160;6&#160;aux&#160;ch,&#160;132.0s&#160;@&#160;30…</text><text class="terminal-4269009678-r6" x="866.2" y="386" textLength="36.6" clip-path="url(#terminal-4269009678-line-15)">&#160;&#160;✓</text><text class="terminal-4269009678-r1" x="976" y="386" textLength="12.2" clip-path="url(#terminal-4269009678-line-15)">
</text><text class="terminal-4269009678-r5" x="24.4" y="410.4" textLength="146.4" clip-path="url(#terminal-4269009678-line-16)">Probe&#160;&#160;&#160;&#160;&#160;&#160;&#160;</text><text class="terminal-4269009678-r4" x="170.8" y="410.4" textLength="549" clip-path="url(#terminal-4269009678-line-16)">NeuroNexus&#160;A1x16-3mm-100-703&#160;·&#160;16&#160;ch&#160;@&#160;100&#160;µm</text><text class="terminal-4269009678-r6" x="719.8" y="410.4" textLength="36.6" clip-path="url(#terminal-4269009678-line-16)">&#160;&#160;✓</text><text class="terminal-4269009678-r1" x="976" y="410.4" textLength="12.2" clip-path="url(#terminal-4269009678-line-16)">
</text><text class="terminal-4269009678-r5" x="24.4" y="434.8" textLength="146.4" clip-path="url(#terminal-4269009678-line-17)">Sort&#160;&#160;&#160;&#160;&#160;&#160;&#160;&#160;</text><text class="terminal-4269009678-r4" x="170.8" y="434.8" textLength="597.8" clip-path="url(#terminal-4269009678-line-17)">tridesclous2&#160;·&#160;12&#160;units&#160;·&#160;took&#160;0:35&#160;·&#160;sort&#160;c7184d</text><text class="terminal-4269009678-r1" x="976" y="434.8" textLength="12.2" clip-path="url(#terminal-4269009678-line-17)">
</text><text class="terminal-4269009678-r5" x="24.4" y="459.2" textLength="146.4" clip-path="url(#terminal-4269009678-line-18)">Noise&#160;floor&#160;</text><text class="terminal-4269009678-r4" x="170.8" y="459.2" textLength="427" clip-path="url(#terminal-4269009678-line-18)">4.07&#160;µV&#160;after&#160;band-pass&#160;+&#160;reference</text><text class="terminal-4269009678-r1" x="976" y="459.2" textLength="12.2" clip-path="url(#terminal-4269009678-line-18)">
</text><text class="terminal-4269009678-r5" x="24.4" y="483.6" textLength="146.4" clip-path="url(#terminal-4269009678-line-19)">Judged&#160;&#160;&#160;&#160;&#160;&#160;</text><text class="terminal-4269009678-r8" x="170.8" y="483.6" textLength="195.2" clip-path="url(#terminal-4269009678-line-19)">░░░░░░░░░░░░░░░░</text><text class="terminal-4269009678-r4" x="366" y="483.6" textLength="85.4" clip-path="url(#terminal-4269009678-line-19)">&#160;0&#160;/&#160;12</text><text class="terminal-4269009678-r1" x="976" y="483.6" textLength="12.2" clip-path="url(#terminal-4269009678-line-19)">
</text><text class="terminal-4269009678-r1" x="976" y="508" textLength="12.2" clip-path="url(#terminal-4269009678-line-20)">
</text><text class="terminal-4269009678-r1" x="976" y="532.4" textLength="12.2" clip-path="url(#terminal-4269009678-line-21)">
</text><text class="terminal-4269009678-r13" x="12.2" y="556.8" textLength="36.6" clip-path="url(#terminal-4269009678-line-22)">&#160;↵&#160;</text><text class="terminal-4269009678-r3" x="48.8" y="556.8" textLength="170.8" clip-path="url(#terminal-4269009678-line-22)">&#160;start&#160;judging</text><text class="terminal-4269009678-r13" x="244" y="556.8" textLength="36.6" clip-path="url(#terminal-4269009678-line-22)">&#160;s&#160;</text><text class="terminal-4269009678-r3" x="280.6" y="556.8" textLength="97.6" clip-path="url(#terminal-4269009678-line-22)">&#160;not&#160;now</text><text class="terminal-4269009678-r13" x="402.6" y="556.8" textLength="61" clip-path="url(#terminal-4269009678-line-22)">&#160;1-6&#160;</text><text class="terminal-4269009678-r3" x="463.6" y="556.8" textLength="85.4" clip-path="url(#terminal-4269009678-line-22)">&#160;stages</text><text class="terminal-4269009678-r13" x="573.4" y="556.8" textLength="36.6" clip-path="url(#terminal-4269009678-line-22)">&#160;/&#160;</text><text class="terminal-4269009678-r3" x="610" y="556.8" textLength="61" clip-path="url(#terminal-4269009678-line-22)">&#160;find</text><text class="terminal-4269009678-r13" x="695.4" y="556.8" textLength="36.6" clip-path="url(#terminal-4269009678-line-22)">&#160;,&#160;</text><text class="terminal-4269009678-r3" x="732" y="556.8" textLength="109.8" clip-path="url(#terminal-4269009678-line-22)">&#160;settings</text><text class="terminal-4269009678-r13" x="866.2" y="556.8" textLength="36.6" clip-path="url(#terminal-4269009678-line-22)">&#160;?&#160;</text><text class="terminal-4269009678-r3" x="902.8" y="556.8" textLength="61" clip-path="url(#terminal-4269009678-line-22)">&#160;help</text><text class="terminal-4269009678-r1" x="976" y="556.8" textLength="12.2" clip-path="url(#terminal-4269009678-line-22)">
</text>
    </g>
    </g>
</svg>
