<svg class="rich-terminal" viewBox="0 0 1238 391.59999999999997" xmlns="http://www.w3.org/2000/svg">
    <!-- Generated with Rich https://www.textualize.io -->
    <style>

    @font-face {
        font-family: "Fira Code";
        src: local("FiraCode-Regular"),
                url("https://cdnjs.cloudflare.com/ajax/libs/firacode/6.2.0/woff2/FiraCode-Regular.woff2") format("woff2"),
                url("https://cdnjs.cloudflare.com/ajax/libs/firacode/6.2.0/woff/FiraCode-Regular.woff") format("woff");
        font-style: normal;
        font-weight: 400;
    }
    @font-face {
        font-family: "Fira Code";
        src: local("FiraCode-Bold"),
                url("https://cdnjs.cloudflare.com/ajax/libs/firacode/6.2.0/woff2/FiraCode-Bold.woff2") format("woff2"),
                url("https://cdnjs.cloudflare.com/ajax/libs/firacode/6.2.0/woff/FiraCode-Bold.woff") format("woff");
        font-style: bold;
        font-weight: 700;
    }

    .terminal-894551979-matrix {
        font-family: Fira Code, monospace;
        font-size: 20px;
        line-height: 24.4px;
        font-variant-east-asian: full-width;
    }

    .terminal-894551979-title {
        font-size: 18px;
        font-weight: bold;
        font-family: arial;
    }

    .terminal-894551979-r1 { fill: #c5c8c6 }
.terminal-894551979-r2 { fill: #44405d }
.terminal-894551979-r3 { fill: #e0e0e0 }
.terminal-894551979-r4 { fill: #e0e0e0;font-weight: bold }
.terminal-894551979-r5 { fill: #aaa9b3 }
.terminal-894551979-r6 { fill: #272727 }
.terminal-894551979-r7 { fill: #a1a1a1 }
.terminal-894551979-r8 { fill: #000000 }
.terminal-894551979-r9 { fill: #999999 }
    </style>

    <defs>
    <clipPath id="terminal-894551979-clip-terminal">
      <rect x="0" y="0" width="1219.0" height="340.59999999999997" />
    </clipPath>
    <clipPath id="terminal-894551979-line-0">
    <rect x="0" y="1.5" width="1220" height="24.65"/>
            </clipPath>
<clipPath id="terminal-894551979-line-1">
    <rect x="0" y="25.9" width="1220" height="24.65"/>
            </clipPath>
<clipPath id="terminal-894551979-line-2">
    <rect x="0" y="50.3" width="1220" height="24.65"/>
            </clipPath>
<clipPath id="terminal-894551979-line-3">
    <rect x="0" y="74.7" width="1220" height="24.65"/>
            </clipPath>
<clipPath id="terminal-894551979-line-4">
    <rect x="0" y="99.1" width="1220" height="24.65"/>
            </clipPath>
<clipPath id="terminal-894551979-line-5">
    <rect x="0" y="123.5" width="1220" height="24.65"/>
            </clipPath>
<clipPath id="terminal-894551979-line-6">
    <rect x="0" y="147.9" width="1220" height="24.65"/>
            </clipPath>
<clipPath id="terminal-894551979-line-7">
    <rect x="0" y="172.3" width="1220" height="24.65"/>
            </clipPath>
<clipPath id="terminal-894551979-line-8">
    <rect x="0" y="196.7" width="1220" height="24.65"/>
            </clipPath>
<clipPath id="terminal-894551979-line-9">
    <rect x="0" y="221.1" width="1220" height="24.65"/>
            </clipPath>
<clipPath id="terminal-894551979-line-10">
    <rect x="0" y="245.5" width="1220" height="24.65"/>
            </clipPath>
<clipPath id="terminal-894551979-line-11">
    <rect x="0" y="269.9" width="1220" height="24.65"/>
            </clipPath>
<clipPath id="terminal-894551979-line-12">
    <rect x="0" y="294.3" width="1220" height="24.65"/>
            </clipPath>
    </defs>

    <rect fill="#292929" stroke="rgba(255,255,255,0.35)" stroke-width="1" x="1" y="1" width="1236" height="389.6" rx="8"/><text class="terminal-894551979-title" fill="#c5c8c6" text-anchor="middle" x="618" y="27">SpikeMenuApp</text>
            <g transform="translate(26,22)">
            <circle cx="0" cy="0" r="7" fill="#ff5f57"/>
            <circle cx="22" cy="0" r="7" fill="#febc2e"/>
            <circle cx="44" cy="0" r="7" fill="#28c840"/>
            </g>
        
    <g transform="translate(9, 41)" clip-path="url(#terminal-894551979-clip-terminal)">
    <rect fill="#121212" x="0" y="1.5" width="24.4" height="24.65" shape-rendering="crispEdges"/><rect fill="#e0e0e0" x="24.4" y="1.5" width="36.6" height="24.65" shape-rendering="crispEdges"/><rect fill="#44405d" x="61" y="1.5" width="24.4" height="24.65" shape-rendering="crispEdges"/><rect fill="#44405d" x="85.4" y="1.5" width="122" height="24.65" shape-rendering="crispEdges"/><rect fill="#44405d" x="207.4" y="1.5" width="158.6" height="24.65" shape-rendering="crispEdges"/><rect fill="#44405d" x="366" y="1.5" width="353.8" height="24.65" shape-rendering="crispEdges"/><rect fill="#44405d" x="719.8" y="1.5" width="36.6" height="24.65" shape-rendering="crispEdges"/><rect fill="#aaa9b3" x="756.4" y="1.5" width="36.6" height="24.65" shape-rendering="crispEdges"/><rect fill="#44405d" x="793" y="1.5" width="85.4" height="24.65" shape-rendering="crispEdges"/><rect fill="#44405d" x="878.4" y="1.5" width="305" height="24.65" shape-rendering="crispEdges"/><rect fill="#003054" x="1183.4" y="1.5" width="12.2" height="24.65" shape-rendering="crispEdges"/><rect fill="#121212" x="1195.6" y="1.5" width="24.4" height="24.65" shape-rendering="crispEdges"/><rect fill="#121212" x="0" y="25.9" width="24.4" height="24.65" shape-rendering="crispEdges"/><rect fill="#e0e0e0" x="24.4" y="25.9" width="36.6" height="24.65" shape-rendering="crispEdges"/><rect fill="#272727" x="61" y="25.9" width="24.4" height="24.65" shape-rendering="crispEdges"/><rect fill="#272727" x="85.4" y="25.9" width="170.8" height="24.65" shape-rendering="crispEdges"/><rect fill="#272727" x="256.2" y="25.9" width="109.8" height="24.65" shape-rendering="crispEdges"/><rect fill="#272727" x="366" y="25.9" width="402.6" height="24.65" shape-rendering="crispEdges"/><rect fill="#272727" x="768.6" y="25.9" width="414.8" height="24.65" shape-rendering="crispEdges"/><rect fill="#003054" x="1183.4" y="25.9" width="12.2" height="24.65" shape-rendering="crispEdges"/><rect fill="#121212" x="1195.6" y="25.9" width="24.4" height="24.65" shape-rendering="crispEdges"/><rect fill="#121212" x="0" y="50.3" width="24.4" height="24.65" shape-rendering="crispEdges"/><rect fill="#e0e0e0" x="24.4" y="50.3" width="36.6" height="24.65" shape-rendering="crispEdges"/><rect fill="#272727" x="61" y="50.3" width="24.4" height="24.65" shape-rendering="crispEdges"/><rect fill="#272727" x="85.4" y="50.3" width="256.2" height="24.65" shape-rendering="crispEdges"/><rect fill="#272727" x="341.6" y="50.3" width="24.4" height="24.65" shape-rendering="crispEdges"/><rect fill="#272727" x="366" y="50.3" width="427" height="24.65" shape-rendering="crispEdges"/><rect fill="#272727" x="793" y="50.3" width="390.4" height="24.65" shape-rendering="crispEdges"/><rect fill="#003054" x="1183.4" y="50.3" width="12.2" height="24.65" shape-rendering="crispEdges"/><rect fill="#121212" x="1195.6" y="50.3" width="24.4" height="24.65" shape-rendering="crispEdges"/><rect fill="#121212" x="0" y="74.7" width="24.4" height="24.65" shape-rendering="crispEdges"/><rect fill="#e0e0e0" x="24.4" y="74.7" width="36.6" height="24.65" shape-rendering="crispEdges"/><rect fill="#272727" x="61" y="74.7" width="24.4" height="24.65" shape-rendering="crispEdges"/><rect fill="#272727" x="85.4" y="74.7" width="195.2" height="24.65" shape-rendering="crispEdges"/><rect fill="#272727" x="280.6" y="74.7" width="85.4" height="24.65" shape-rendering="crispEdges"/><rect fill="#272727" x="366" y="74.7" width="402.6" height="24.65" shape-rendering="crispEdges"/><rect fill="#272727" x="768.6" y="74.7" width="414.8" height="24.65" shape-rendering="crispEdges"/><rect fill="#003054" x="1183.4" y="74.7" width="12.2" height="24.65" shape-rendering="crispEdges"/><rect fill="#121212" x="1195.6" y="74.7" width="24.4" height="24.65" shape-rendering="crispEdges"/><rect fill="#121212" x="0" y="99.1" width="24.4" height="24.65" shape-rendering="crispEdges"/><rect fill="#e0e0e0" x="24.4" y="99.1" width="36.6" height="24.65" shape-rendering="crispEdges"/><rect fill="#272727" x="61" y="99.1" width="24.4" height="24.65" shape-rendering="crispEdges"/><rect fill="#272727" x="85.4" y="99.1" width="207.4" height="24.65" shape-rendering="crispEdges"/><rect fill="#272727" x="292.8" y="99.1" width="73.2" height="24.65" shape-rendering="crispEdges"/><rect fill="#272727" x="366" y="99.1" width="463.6" height="24.65" shape-rendering="crispEdges"/><rect fill="#272727" x="829.6" y="99.1" width="353.8" height="24.65" shape-rendering="crispEdges"/><rect fill="#003054" x="1183.4" y="99.1" width="12.2" height="24.65" shape-rendering="crispEdges"/><rect fill="#121212" x="1195.6" y="99.1" width="24.4" height="24.65" shape-rendering="crispEdges"/><rect fill="#121212" x="0" y="123.5" width="24.4" height="24.65" shape-rendering="crispEdges"/><rect fill="#e0e0e0" x="24.4" y="123.5" width="36.6" height="24.65" shape-rendering="crispEdges"/><rect fill="#272727" x="61" y="123.5" width="24.4" height="24.65" shape-rendering="crispEdges"/><rect fill="#272727" x="85.4" y="123.5" width="207.4" height="24.65" shape-rendering="crispEdges"/><rect fill="#272727" x="292.8" y="123.5" width="73.2" height="24.65" shape-rendering="crispEdges"/><rect fill="#272727" x="366" y="123.5" width="378.2" height="24.65" shape-rendering="crispEdges"/><rect fill="#272727" x="744.2" y="123.5" width="439.2" height="24.65" shape-rendering="crispEdges"/><rect fill="#003054" x="1183.4" y="123.5" width="12.2" height="24.65" shape-rendering="crispEdges"/><rect fill="#121212" x="1195.6" y="123.5" width="24.4" height="24.65" shape-rendering="crispEdges"/><rect fill="#121212" x="0" y="147.9" width="24.4" height="24.65" shape-rendering="crispEdges"/><rect fill="#e0e0e0" x="24.4" y="147.9" width="36.6" height="24.65" shape-rendering="crispEdges"/><rect fill="#272727" x="61" y="147.9" width="24.4" height="24.65" shape-rendering="crispEdges"/><rect fill="#272727" x="85.4" y="147.9" width="183" height="24.65" shape-rendering="crispEdges"/><rect fill="#272727" x="268.4" y="147.9" width="97.6" height="24.65" shape-rendering="crispEdges"/><rect fill="#272727" x="366" y="147.9" width="402.6" height="24.65" shape-rendering="crispEdges"/><rect fill="#272727" x="768.6" y="147.9" width="414.8" height="24.65" shape-rendering="crispEdges"/><rect fill="#003054" x="1183.4" y="147.9" width="12.2" height="24.65" shape-rendering="crispEdges"/><rect fill="#121212" x="1195.6" y="147.9" width="24.4" height="24.65" shape-rendering="crispEdges"/><rect fill="#121212" x="0" y="172.3" width="24.4" height="24.65" shape-rendering="crispEdges"/><rect fill="#e0e0e0" x="24.4" y="172.3" width="36.6" height="24.65" shape-rendering="crispEdges"/><rect fill="#272727" x="61" y="172.3" width="24.4" height="24.65" shape-rendering="crispEdges"/><rect fill="#272727" x="85.4" y="172.3" width="219.6" height="24.65" shape-rendering="crispEdges"/><rect fill="#272727" x="305" y="172.3" width="61" height="24.65" shape-rendering="crispEdges"/><rect fill="#272727" x="366" y="172.3" width="427" height="24.65" shape-rendering="crispEdges"/><rect fill="#272727" x="793" y="172.3" width="390.4" height="24.65" shape-rendering="crispEdges"/><rect fill="#003054" x="1183.4" y="172.3" width="12.2" height="24.65" shape-rendering="crispEdges"/><rect fill="#121212" x="1195.6" y="172.3" width="24.4" height="24.65" shape-rendering="crispEdges"/><rect fill="#121212" x="0" y="196.7" width="24.4" height="24.65" shape-rendering="crispEdges"/><rect fill="#e0e0e0" x="24.4" y="196.7" width="36.6" height="24.65" shape-rendering="crispEdges"/><rect fill="#272727" x="61" y="196.7" width="24.4" height="24.65" shape-rendering="crispEdges"/><rect fill="#272727" x="85.4" y="196.7" width="183" height="24.65" shape-rendering="crispEdges"/><rect fill="#272727" x="268.4" y="196.7" width="97.6" height="24.65" shape-rendering="crispEdges"/><rect fill="#272727" x="366" y="196.7" width="439.2" height="24.65" shape-rendering="crispEdges"/><rect fill="#272727" x="805.2" y="196.7" width="378.2" height="24.65" shape-rendering="crispEdges"/><rect fill="#003054" x="1183.4" y="196.7" width="12.2" height="24.65" shape-rendering="crispEdges"/><rect fill="#121212" x="1195.6" y="196.7" width="24.4" height="24.65" shape-rendering="crispEdges"/><rect fill="#121212" x="0" y="221.1" width="24.4" height="24.65" shape-rendering="crispEdges"/><rect fill="#e0e0e0" x="24.4" y="221.1" width="36.6" height="24.65" shape-rendering="crispEdges"/><rect fill="#272727" x="61" y="221.1" width="24.4" height="24.65" shape-rendering="crispEdges"/><rect fill="#272727" x="85.4" y="221.1" width="158.6" height="24.65" shape-rendering="crispEdges"/><rect fill="#272727" x="244" y="221.1" width="122" height="24.65" shape-rendering="crispEdges"/><rect fill="#272727" x="366" y="221.1" width="402.6" height="24.65" shape-rendering="crispEdges"/><rect fill="#272727" x="768.6" y="221.1" width="414.8" height="24.65" shape-rendering="crispEdges"/><rect fill="#003054" x="1183.4" y="221.1" width="12.2" height="24.65" shape-rendering="crispEdges"/><rect fill="#121212" x="1195.6" y="221.1" width="24.4" height="24.65" shape-rendering="crispEdges"/><rect fill="#121212" x="0" y="245.5" width="24.4" height="24.65" shape-rendering="crispEdges"/><rect fill="#e0e0e0" x="24.4" y="245.5" width="36.6" height="24.65" shape-rendering="crispEdges"/><rect fill="#272727" x="61" y="245.5" width="24.4" height="24.65" shape-rendering="crispEdges"/><rect fill="#272727" x="85.4" y="245.5" width="195.2" height="24.65" shape-rendering="crispEdges"/><rect fill="#272727" x="280.6" y="245.5" width="85.4" height="24.65" shape-rendering="crispEdges"/><rect fill="#272727" x="366" y="245.5" width="500.2" height="24.65" shape-rendering="crispEdges"/><rect fill="#272727" x="866.2" y="245.5" width="317.2" height="24.65" shape-rendering="crispEdges"/><rect fill="#003054" x="1183.4" y="245.5" width="12.2" height="24.65" shape-rendering="crispEdges"/><rect fill="#121212" x="1195.6" y="245.5" width="24.4" height="24.65" shape-rendering="crispEdges"/><rect fill="#121212" x="0" y="269.9" width="24.4" height="24.65" shape-rendering="crispEdges"/><rect fill="#e0e0e0" x="24.4" y="269.9" width="36.6" height="24.65" shape-rendering="crispEdges"/><rect fill="#272727" x="61" y="269.9" width="24.4" height="24.65" shape-rendering="crispEdges"/><rect fill="#272727" x="85.4" y="269.9" width="219.6" height="24.65" shape-rendering="crispEdges"/><rect fill="#272727" x="305" y="269.9" width="61" height="24.65" shape-rendering="crispEdges"/><rect fill="#272727" x="366" y="269.9" width="439.2" height="24.65" shape-rendering="crispEdges"/><rect fill="#272727" x="805.2" y="269.9" width="378.2" height="24.65" shape-rendering="crispEdges"/><rect fill="#000000" x="1183.4" y="269.9" width="12.2" height="24.65" shape-rendering="crispEdges"/><rect fill="#121212" x="1195.6" y="269.9" width="24.4" height="24.65" shape-rendering="crispEdges"/><rect fill="#121212" x="0" y="294.3" width="24.4" height="24.65" shape-rendering="crispEdges"/><rect fill="#121212" x="24.4" y="294.3" width="0" height="24.65" shape-rendering="crispEdges"/><rect fill="#121212" x="24.4" y="294.3" width="1195.6" height="24.65" shape-rendering="crispEdges"/><rect fill="#121212" x="0" y="318.7" width="24.4" height="24.65" shape-rendering="crispEdges"/><rect fill="#121212" x="24.4" y="318.7" width="988.2" height="24.65" shape-rendering="crispEdges"/><rect fill="#121212" x="1012.6" y="318.7" width="207.4" height="24.65" shape-rendering="crispEdges"/>
    <g class="terminal-894551979-matrix">
    <text class="terminal-894551979-r2" x="24.4" y="20" textLength="36.6" clip-path="url(#terminal-894551979-line-0)">&#160;d&#160;</text><text class="terminal-894551979-r4" x="85.4" y="20" textLength="122" clip-path="url(#terminal-894551979-line-0)">Data&#160;files</text><text class="terminal-894551979-r5" x="366" y="20" textLength="353.8" clip-path="url(#terminal-894551979-line-0)">which&#160;files&#160;loaded,&#160;and&#160;where</text><text class="terminal-894551979-r2" x="756.4" y="20" textLength="36.6" clip-path="url(#terminal-894551979-line-0)">&#160;f&#160;</text><text class="terminal-894551979-r5" x="793" y="20" textLength="85.4" clip-path="url(#terminal-894551979-line-0)">&#160;folder</text><text class="terminal-894551979-r1" x="1220" y="20" textLength="12.2" clip-path="url(#terminal-894551979-line-0)">
</text><text class="terminal-894551979-r6" x="24.4" y="44.4" textLength="36.6" clip-path="url(#terminal-894551979-line-1)">&#160;p&#160;</text><text class="terminal-894551979-r4" x="85.4" y="44.4" textLength="170.8" clip-path="url(#terminal-894551979-line-1)">Probe&#160;geometry</text><text class="terminal-894551979-r7" x="366" y="44.4" textLength="402.6" clip-path="url(#terminal-894551979-line-1)">the&#160;electrode&#160;map&#160;every&#160;sort&#160;uses</text><text class="terminal-894551979-r1" x="1220" y="44.4" textLength="12.2" clip-path="url(#terminal-894551979-line-1)">
</text><text class="terminal-894551979-r6" x="24.4" y="68.8" textLength="36.6" clip-path="url(#terminal-894551979-line-2)">&#160;1&#160;</text><text class="terminal-894551979-r4" x="85.4" y="68.8" textLength="256.2" clip-path="url(#terminal-894551979-line-2)">Explore&#160;the&#160;recording</text><text class="terminal-894551979-r7" x="366" y="68.8" textLength="427" clip-path="url(#terminal-894551979-line-2)">static&#160;figures&#160;-&#160;LFP,&#160;events,&#160;rates</text><text class="terminal-894551979-r1" x="1220" y="68.8" textLength="12.2" clip-path="url(#terminal-894551979-line-2)">
</text><text class="terminal-894551979-r6" x="24.4" y="93.2" textLength="36.6" clip-path="url(#terminal-894551979-line-3)">&#160;6&#160;</text><text class="terminal-894551979-r4" x="85.4" y="93.2" textLength="195.2" clip-path="url(#terminal-894551979-line-3)">Watch&#160;the&#160;traces</text><text class="terminal-894551979-r7" x="366" y="93.2" textLength="402.6" clip-path="url(#terminal-894551979-line-3)">scroll&#160;the&#160;raw&#160;signal&#160;in&#160;a&#160;window</text><text class="terminal-894551979-r1" x="1220" y="93.2" textLength="12.2" clip-path="url(#terminal-894551979-line-3)">
</text><text class="terminal-894551979-r6" x="24.4" y="117.6" textLength="36.6" clip-path="url(#terminal-894551979-line-4)">&#160;v&#160;</text><text class="terminal-894551979-r4" x="85.4" y="117.6" textLength="207.4" clip-path="url(#terminal-894551979-line-4)">Check&#160;the&#160;install</text><text class="terminal-894551979-r7" x="366" y="117.6" textLength="463.6" clip-path="url(#terminal-894551979-line-4)">every&#160;library&#160;and&#160;loader,&#160;pass&#160;or&#160;fail</text><text class="terminal-894551979-r1" x="1220" y="117.6" textLength="12.2" clip-path="url(#terminal-894551979-line-4)">
</text><text class="terminal-894551979-r6" x="24.4" y="142" textLength="36.6" clip-path="url(#terminal-894551979-line-5)">&#160;t&#160;</text><text class="terminal-894551979-r4" x="85.4" y="142" textLength="207.4" clip-path="url(#terminal-894551979-line-5)">Choose&#160;the&#160;sorter</text><text class="terminal-894551979-r7" x="366" y="142" textLength="378.2" clip-path="url(#terminal-894551979-line-5)">which&#160;algorithm&#160;finds&#160;the&#160;units</text><text class="terminal-894551979-r1" x="1220" y="142" textLength="12.2" clip-path="url(#terminal-894551979-line-5)">
</text><text class="terminal-894551979-r6" x="24.4" y="166.4" textLength="36.6" clip-path="url(#terminal-894551979-line-6)">&#160;e&#160;</text><text class="terminal-894551979-r4" x="85.4" y="166.4" textLength="183" clip-path="url(#terminal-894551979-line-6)">Sorter&#160;settings</text><text class="terminal-894551979-r7" x="366" y="166.4" textLength="402.6" clip-path="url(#terminal-894551979-line-6)">the&#160;parameters&#160;the&#160;next&#160;sort&#160;uses</text><text class="terminal-894551979-r1" x="1220" y="166.4" textLength="12.2" clip-path="url(#terminal-894551979-line-6)">
</text><text class="terminal-894551979-r6" x="24.4" y="190.8" textLength="36.6" clip-path="url(#terminal-894551979-line-7)">&#160;2&#160;</text><text class="terminal-894551979-r4" x="85.4" y="190.8" textLength="219.6" clip-path="url(#terminal-894551979-line-7)">Sort&#160;the&#160;recording</text><text class="terminal-894551979-r7" x="366" y="190.8" textLength="427" clip-path="url(#terminal-894551979-line-7)">finds&#160;units&#160;in&#160;the&#160;broadband&#160;signal</text><text class="terminal-894551979-r1" x="1220" y="190.8" textLength="12.2" clip-path="url(#terminal-894551979-line-7)">
</text><text class="terminal-894551979-r6" x="24.4" y="215.2" textLength="36.6" clip-path="url(#terminal-894551979-line-8)">&#160;u&#160;</text><text class="terminal-894551979-r4" x="85.4" y="215.2" textLength="183" clip-path="url(#terminal-894551979-line-8)">Judge&#160;the&#160;units</text><text class="terminal-894551979-r7" x="366" y="215.2" textLength="439.2" clip-path="url(#terminal-894551979-line-8)">good&#160;/&#160;MUA&#160;/&#160;noise,&#160;one&#160;key&#160;per&#160;unit</text><text class="terminal-894551979-r1" x="1220" y="215.2" textLength="12.2" clip-path="url(#terminal-894551979-line-8)">
</text><text class="terminal-894551979-r6" x="24.4" y="239.6" textLength="36.6" clip-path="url(#terminal-894551979-line-9)">&#160;y&#160;</text><text class="terminal-894551979-r4" x="85.4" y="239.6" textLength="158.6" clip-path="url(#terminal-894551979-line-9)">Export&#160;to&#160;Phy</text><text class="terminal-894551979-r7" x="366" y="239.6" textLength="402.6" clip-path="url(#terminal-894551979-line-9)">a&#160;folder&#160;to&#160;curate&#160;the&#160;hard&#160;cases</text><text class="terminal-894551979-r1" x="1220" y="239.6" textLength="12.2" clip-path="url(#terminal-894551979-line-9)">
</text><text class="terminal-894551979-r6" x="24.4" y="264" textLength="36.6" clip-path="url(#terminal-894551979-line-10)">&#160;3&#160;</text><text class="terminal-894551979-r4" x="85.4" y="264" textLength="195.2" clip-path="url(#terminal-894551979-line-10)">Build&#160;the&#160;report</text><text class="terminal-894551979-r7" x="366" y="264" textLength="500.2" clip-path="url(#terminal-894551979-line-10)">one&#160;HTML&#160;page:&#160;units,&#160;quality,&#160;provenance</text><text class="terminal-894551979-r8" x="1183.4" y="264" textLength="12.2" clip-path="url(#terminal-894551979-line-10)">▅</text><text class="terminal-894551979-r1" x="1220" y="264" textLength="12.2" clip-path="url(#terminal-894551979-line-10)">
</text><text class="terminal-894551979-r6" x="24.4" y="288.4" textLength="36.6" clip-path="url(#terminal-894551979-line-11)">&#160;4&#160;</text><text class="terminal-894551979-r4" x="85.4" y="288.4" textLength="219.6" clip-path="url(#terminal-894551979-line-11)">Inspect&#160;in&#160;the&#160;GUI</text><text class="terminal-894551979-r7" x="366" y="288.4" textLength="439.2" clip-path="url(#terminal-894551979-line-11)">waveforms&#160;+&#160;correlograms&#160;in&#160;a&#160;window</text><text class="terminal-894551979-r1" x="1220" y="288.4" textLength="12.2" clip-path="url(#terminal-894551979-line-11)">
</text><text class="terminal-894551979-r1" x="1220" y="312.8" textLength="12.2" clip-path="url(#terminal-894551979-line-12)">
</text><text class="terminal-894551979-r9" x="24.4" y="337.2" textLength="988.2" clip-path="url(#terminal-894551979-line-13)">↑/↓&#160;move&#160;·&#160;↵&#160;run&#160;·&#160;or&#160;the&#160;key&#160;on&#160;the&#160;row&#160;·&#160;m&#160;sorters&#160;·&#160;c&#160;colour&#160;·&#160;?&#160;help&#160;·&#160;q&#160;quit</text>
    </g>
    </g>
</svg>
