<svg class="rich-terminal" viewBox="0 0 1360 1026.0" xmlns="http://www.w3.org/2000/svg">
    <!-- Generated with Rich https://www.textualize.io -->
    <style>

    @font-face {
        font-family: "Fira Code";
        src: local("FiraCode-Regular"),
                url("https://cdnjs.cloudflare.com/ajax/libs/firacode/6.2.0/woff2/FiraCode-Regular.woff2") format("woff2"),
                url("https://cdnjs.cloudflare.com/ajax/libs/firacode/6.2.0/woff/FiraCode-Regular.woff") format("woff");
        font-style: normal;
        font-weight: 400;
    }
    @font-face {
        font-family: "Fira Code";
        src: local("FiraCode-Bold"),
                url("https://cdnjs.cloudflare.com/ajax/libs/firacode/6.2.0/woff2/FiraCode-Bold.woff2") format("woff2"),
                url("https://cdnjs.cloudflare.com/ajax/libs/firacode/6.2.0/woff/FiraCode-Bold.woff") format("woff");
        font-style: bold;
        font-weight: 700;
    }

    .terminal-2345630061-matrix {
        font-family: Fira Code, monospace;
        font-size: 20px;
        line-height: 24.4px;
        font-variant-east-asian: full-width;
    }

    .terminal-2345630061-title {
        font-size: 18px;
        font-weight: bold;
        font-family: arial;
    }

    .terminal-2345630061-r1 { fill: #c5c8c6 }
.terminal-2345630061-r2 { fill: #15141f;font-weight: bold }
.terminal-2345630061-r3 { fill: #9aa0a6 }
.terminal-2345630061-r4 { fill: #e0e0e0 }
.terminal-2345630061-r5 { fill: #6e7681 }
.terminal-2345630061-r6 { fill: #3fb950;font-weight: bold }
.terminal-2345630061-r7 { fill: #e0e0e0;font-weight: bold }
.terminal-2345630061-r8 { fill: #3a3f47 }
.terminal-2345630061-r9 { fill: #6e7681;font-weight: bold }
.terminal-2345630061-r10 { fill: #9b8cff;font-weight: bold }
.terminal-2345630061-r11 { fill: #9aa0a6;font-weight: bold }
.terminal-2345630061-r12 { fill: #e3a008 }
.terminal-2345630061-r13 { fill: #3fb950 }
.terminal-2345630061-r14 { fill: #c8d0fb;font-weight: bold }
    </style>

    <defs>
    <clipPath id="terminal-2345630061-clip-terminal">
      <rect x="0" y="0" width="1341.0" height="975.0" />
    </clipPath>
    <clipPath id="terminal-2345630061-line-0">
    <rect x="0" y="1.5" width="1342" height="24.65"/>
            </clipPath>
<clipPath id="terminal-2345630061-line-1">
    <rect x="0" y="25.9" width="1342" height="24.65"/>
            </clipPath>
<clipPath id="terminal-2345630061-line-2">
    <rect x="0" y="50.3" width="1342" height="24.65"/>
            </clipPath>
<clipPath id="terminal-2345630061-line-3">
    <rect x="0" y="74.7" width="1342" height="24.65"/>
            </clipPath>
<clipPath id="terminal-2345630061-line-4">
    <rect x="0" y="99.1" width="1342" height="24.65"/>
            </clipPath>
<clipPath id="terminal-2345630061-line-5">
    <rect x="0" y="123.5" width="1342" height="24.65"/>
            </clipPath>
<clipPath id="terminal-2345630061-line-6">
    <rect x="0" y="147.9" width="1342" height="24.65"/>
            </clipPath>
<clipPath id="terminal-2345630061-line-7">
    <rect x="0" y="172.3" width="1342" height="24.65"/>
            </clipPath>
<clipPath id="terminal-2345630061-line-8">
    <rect x="0" y="196.7" width="1342" height="24.65"/>
            </clipPath>
<clipPath id="terminal-2345630061-line-9">
    <rect x="0" y="221.1" width="1342" height="24.65"/>
            </clipPath>
<clipPath id="terminal-2345630061-line-10">
    <rect x="0" y="245.5" width="1342" height="24.65"/>
            </clipPath>
<clipPath id="terminal-2345630061-line-11">
    <rect x="0" y="269.9" width="1342" height="24.65"/>
            </clipPath>
<clipPath id="terminal-2345630061-line-12">
    <rect x="0" y="294.3" width="1342" height="24.65"/>
            </clipPath>
<clipPath id="terminal-2345630061-line-13">
    <rect x="0" y="318.7" width="1342" height="24.65"/>
            </clipPath>
<clipPath id="terminal-2345630061-line-14">
    <rect x="0" y="343.1" width="1342" height="24.65"/>
            </clipPath>
<clipPath id="terminal-2345630061-line-15">
    <rect x="0" y="367.5" width="1342" height="24.65"/>
            </clipPath>
<clipPath id="terminal-2345630061-line-16">
    <rect x="0" y="391.9" width="1342" height="24.65"/>
            </clipPath>
<clipPath id="terminal-2345630061-line-17">
    <rect x="0" y="416.3" width="1342" height="24.65"/>
            </clipPath>
<clipPath id="terminal-2345630061-line-18">
    <rect x="0" y="440.7" width="1342" height="24.65"/>
            </clipPath>
<clipPath id="terminal-2345630061-line-19">
    <rect x="0" y="465.1" width="1342" height="24.65"/>
            </clipPath>
<clipPath id="terminal-2345630061-line-20">
    <rect x="0" y="489.5" width="1342" height="24.65"/>
            </clipPath>
<clipPath id="terminal-2345630061-line-21">
    <rect x="0" y="513.9" width="1342" height="24.65"/>
            </clipPath>
<clipPath id="terminal-2345630061-line-22">
    <rect x="0" y="538.3" width="1342" height="24.65"/>
            </clipPath>
<clipPath id="terminal-2345630061-line-23">
    <rect x="0" y="562.7" width="1342" height="24.65"/>
            </clipPath>
<clipPath id="terminal-2345630061-line-24">
    <rect x="0" y="587.1" width="1342" height="24.65"/>
            </clipPath>
<clipPath id="terminal-2345630061-line-25">
    <rect x="0" y="611.5" width="1342" height="24.65"/>
            </clipPath>
<clipPath id="terminal-2345630061-line-26">
    <rect x="0" y="635.9" width="1342" height="24.65"/>
            </clipPath>
<clipPath id="terminal-2345630061-line-27">
    <rect x="0" y="660.3" width="1342" height="24.65"/>
            </clipPath>
<clipPath id="terminal-2345630061-line-28">
    <rect x="0" y="684.7" width="1342" height="24.65"/>
            </clipPath>
<clipPath id="terminal-2345630061-line-29">
    <rect x="0" y="709.1" width="1342" height="24.65"/>
            </clipPath>
<clipPath id="terminal-2345630061-line-30">
    <rect x="0" y="733.5" width="1342" height="24.65"/>
            </clipPath>
<clipPath id="terminal-2345630061-line-31">
    <rect x="0" y="757.9" width="1342" height="24.65"/>
            </clipPath>
<clipPath id="terminal-2345630061-line-32">
    <rect x="0" y="782.3" width="1342" height="24.65"/>
            </clipPath>
<clipPath id="terminal-2345630061-line-33">
    <rect x="0" y="806.7" width="1342" height="24.65"/>
            </clipPath>
<clipPath id="terminal-2345630061-line-34">
    <rect x="0" y="831.1" width="1342" height="24.65"/>
            </clipPath>
<clipPath id="terminal-2345630061-line-35">
    <rect x="0" y="855.5" width="1342" height="24.65"/>
            </clipPath>
<clipPath id="terminal-2345630061-line-36">
    <rect x="0" y="879.9" width="1342" height="24.65"/>
            </clipPath>
<clipPath id="terminal-2345630061-line-37">
    <rect x="0" y="904.3" width="1342" height="24.65"/>
            </clipPath>
<clipPath id="terminal-2345630061-line-38">
    <rect x="0" y="928.7" width="1342" height="24.65"/>
            </clipPath>
    </defs>

    <rect fill="#292929" stroke="rgba(255,255,255,0.35)" stroke-width="1" x="1" y="1" width="1358" height="1024" rx="8"/><text class="terminal-2345630061-title" fill="#c5c8c6" text-anchor="middle" x="679" y="27">SpikeApp</text>
            <g transform="translate(26,22)">
            <circle cx="0" cy="0" r="7" fill="#ff5f57"/>
            <circle cx="22" cy="0" r="7" fill="#febc2e"/>
            <circle cx="44" cy="0" r="7" fill="#28c840"/>
            </g>
        
    <g transform="translate(9, 41)" clip-path="url(#terminal-2345630061-clip-terminal)">
    <rect fill="#121212" x="0" y="1.5" width="1342" height="24.65" shape-rendering="crispEdges"/><rect fill="#121212" x="0" y="25.9" width="12.2" height="24.65" shape-rendering="crispEdges"/><rect fill="#9b8cff" x="12.2" y="25.9" width="85.4" height="24.65" shape-rendering="crispEdges"/><rect fill="#121212" x="97.6" y="25.9" width="268.4" height="24.65" shape-rendering="crispEdges"/><rect fill="#121212" x="366" y="25.9" width="585.6" height="24.65" shape-rendering="crispEdges"/><rect fill="#121212" x="951.6" y="25.9" width="378.2" height="24.65" shape-rendering="crispEdges"/><rect fill="#121212" x="1329.8" y="25.9" width="12.2" height="24.65" shape-rendering="crispEdges"/><rect fill="#121212" x="0" y="50.3" width="1342" height="24.65" shape-rendering="crispEdges"/><rect fill="#121212" x="0" y="74.7" width="12.2" height="24.65" shape-rendering="crispEdges"/><rect fill="#121212" x="12.2" y="74.7" width="24.4" height="24.65" shape-rendering="crispEdges"/><rect fill="#121212" x="36.6" y="74.7" width="97.6" height="24.65" shape-rendering="crispEdges"/><rect fill="#121212" x="134.2" y="74.7" width="97.6" height="24.65" shape-rendering="crispEdges"/><rect fill="#121212" x="231.8" y="74.7" width="24.4" height="24.65" shape-rendering="crispEdges"/><rect fill="#121212" x="256.2" y="74.7" width="109.8" height="24.65" shape-rendering="crispEdges"/><rect fill="#121212" x="366" y="74.7" width="97.6" height="24.65" shape-rendering="crispEdges"/><rect fill="#121212" x="463.6" y="74.7" width="24.4" height="24.65" shape-rendering="crispEdges"/><rect fill="#121212" x="488" y="74.7" width="97.6" height="24.65" shape-rendering="crispEdges"/><rect fill="#121212" x="585.6" y="74.7" width="97.6" height="24.65" shape-rendering="crispEdges"/><rect fill="#121212" x="683.2" y="74.7" width="24.4" height="24.65" shape-rendering="crispEdges"/><rect fill="#121212" x="707.6" y="74.7" width="109.8" height="24.65" shape-rendering="crispEdges"/><rect fill="#121212" x="817.4" y="74.7" width="97.6" height="24.65" shape-rendering="crispEdges"/><rect fill="#9b8cff" x="915" y="74.7" width="134.2" height="24.65" shape-rendering="crispEdges"/><rect fill="#121212" x="1049.2" y="74.7" width="97.6" height="24.65" shape-rendering="crispEdges"/><rect fill="#121212" x="1146.8" y="74.7" width="24.4" height="24.65" shape-rendering="crispEdges"/><rect fill="#121212" x="1171.2" y="74.7" width="109.8" height="24.65" shape-rendering="crispEdges"/><rect fill="#121212" x="1281" y="74.7" width="61" height="24.65" shape-rendering="crispEdges"/><rect fill="#121212" x="0" y="99.1" width="12.2" height="24.65" shape-rendering="crispEdges"/><rect fill="#121212" x="12.2" y="99.1" width="12.2" height="24.65" shape-rendering="crispEdges"/><rect fill="#121212" x="24.4" y="99.1" width="109.8" height="24.65" shape-rendering="crispEdges"/><rect fill="#121212" x="134.2" y="99.1" width="109.8" height="24.65" shape-rendering="crispEdges"/><rect fill="#121212" x="244" y="99.1" width="134.2" height="24.65" shape-rendering="crispEdges"/><rect fill="#121212" x="378.2" y="99.1" width="97.6" height="24.65" shape-rendering="crispEdges"/><rect fill="#121212" x="475.8" y="99.1" width="97.6" height="24.65" shape-rendering="crispEdges"/><rect fill="#121212" x="573.4" y="99.1" width="122" height="24.65" shape-rendering="crispEdges"/><rect fill="#121212" x="695.4" y="99.1" width="48.8" height="24.65" shape-rendering="crispEdges"/><rect fill="#121212" x="744.2" y="99.1" width="414.8" height="24.65" shape-rendering="crispEdges"/><rect fill="#121212" x="1159" y="99.1" width="183" height="24.65" shape-rendering="crispEdges"/><rect fill="#121212" x="0" y="123.5" width="12.2" height="24.65" shape-rendering="crispEdges"/><rect fill="#121212" x="12.2" y="123.5" width="1317.6" height="24.65" shape-rendering="crispEdges"/><rect fill="#121212" x="1329.8" y="123.5" width="12.2" height="24.65" shape-rendering="crispEdges"/><rect fill="#121212" x="0" y="147.9" width="1342" height="24.65" shape-rendering="crispEdges"/><rect fill="#121212" x="0" y="172.3" width="24.4" height="24.65" shape-rendering="crispEdges"/><rect fill="#121212" x="24.4" y="172.3" width="207.4" height="24.65" shape-rendering="crispEdges"/><rect fill="#121212" x="231.8" y="172.3" width="390.4" height="24.65" shape-rendering="crispEdges"/><rect fill="#121212" x="622.2" y="172.3" width="719.8" height="24.65" shape-rendering="crispEdges"/><rect fill="#121212" x="0" y="196.7" width="24.4" height="24.65" shape-rendering="crispEdges"/><rect fill="#121212" x="24.4" y="196.7" width="1281" height="24.65" shape-rendering="crispEdges"/><rect fill="#121212" x="1305.4" y="196.7" width="36.6" height="24.65" shape-rendering="crispEdges"/><rect fill="#121212" x="0" y="221.1" width="24.4" height="24.65" shape-rendering="crispEdges"/><rect fill="#121212" x="24.4" y="221.1" width="0" height="24.65" shape-rendering="crispEdges"/><rect fill="#121212" x="24.4" y="221.1" width="1317.6" height="24.65" shape-rendering="crispEdges"/><rect fill="#121212" x="0" y="245.5" width="24.4" height="24.65" shape-rendering="crispEdges"/><rect fill="#121212" x="24.4" y="245.5" width="73.2" height="24.65" shape-rendering="crispEdges"/><rect fill="#121212" x="97.6" y="245.5" width="317.2" height="24.65" shape-rendering="crispEdges"/><rect fill="#121212" x="414.8" y="245.5" width="61" height="24.65" shape-rendering="crispEdges"/><rect fill="#121212" x="475.8" y="245.5" width="866.2" height="24.65" shape-rendering="crispEdges"/><rect fill="#121212" x="0" y="269.9" width="24.4" height="24.65" shape-rendering="crispEdges"/><rect fill="#121212" x="24.4" y="269.9" width="854" height="24.65" shape-rendering="crispEdges"/><rect fill="#121212" x="878.4" y="269.9" width="463.6" height="24.65" shape-rendering="crispEdges"/><rect fill="#121212" x="0" y="294.3" width="24.4" height="24.65" shape-rendering="crispEdges"/><rect fill="#121212" x="24.4" y="294.3" width="390.4" height="24.65" shape-rendering="crispEdges"/><rect fill="#121212" x="414.8" y="294.3" width="475.8" height="24.65" shape-rendering="crispEdges"/><rect fill="#121212" x="890.6" y="294.3" width="451.4" height="24.65" shape-rendering="crispEdges"/><rect fill="#121212" x="0" y="318.7" width="24.4" height="24.65" shape-rendering="crispEdges"/><rect fill="#121212" x="24.4" y="318.7" width="0" height="24.65" shape-rendering="crispEdges"/><rect fill="#121212" x="24.4" y="318.7" width="1317.6" height="24.65" shape-rendering="crispEdges"/><rect fill="#121212" x="0" y="343.1" width="24.4" height="24.65" shape-rendering="crispEdges"/><rect fill="#121212" x="24.4" y="343.1" width="195.2" height="24.65" shape-rendering="crispEdges"/><rect fill="#121212" x="219.6" y="343.1" width="1122.4" height="24.65" shape-rendering="crispEdges"/><rect fill="#121212" x="0" y="367.5" width="24.4" height="24.65" shape-rendering="crispEdges"/><rect fill="#121212" x="24.4" y="367.5" width="0" height="24.65" shape-rendering="crispEdges"/><rect fill="#121212" x="24.4" y="367.5" width="1317.6" height="24.65" shape-rendering="crispEdges"/><rect fill="#121212" x="0" y="391.9" width="24.4" height="24.65" shape-rendering="crispEdges"/><rect fill="#121212" x="24.4" y="391.9" width="268.4" height="24.65" shape-rendering="crispEdges"/><rect fill="#121212" x="292.8" y="391.9" width="1049.2" height="24.65" shape-rendering="crispEdges"/><rect fill="#121212" x="0" y="416.3" width="24.4" height="24.65" shape-rendering="crispEdges"/><rect fill="#121212" x="24.4" y="416.3" width="146.4" height="24.65" shape-rendering="crispEdges"/><rect fill="#121212" x="170.8" y="416.3" width="195.2" height="24.65" shape-rendering="crispEdges"/><rect fill="#121212" x="366" y="416.3" width="109.8" height="24.65" shape-rendering="crispEdges"/><rect fill="#121212" x="475.8" y="416.3" width="36.6" height="24.65" shape-rendering="crispEdges"/><rect fill="#121212" x="512.4" y="416.3" width="829.6" height="24.65" shape-rendering="crispEdges"/><rect fill="#121212" x="0" y="440.7" width="24.4" height="24.65" shape-rendering="crispEdges"/><rect fill="#121212" x="24.4" y="440.7" width="146.4" height="24.65" shape-rendering="crispEdges"/><rect fill="#121212" x="170.8" y="440.7" width="195.2" height="24.65" shape-rendering="crispEdges"/><rect fill="#121212" x="366" y="440.7" width="109.8" height="24.65" shape-rendering="crispEdges"/><rect fill="#121212" x="475.8" y="440.7" width="36.6" height="24.65" shape-rendering="crispEdges"/><rect fill="#121212" x="512.4" y="440.7" width="829.6" height="24.65" shape-rendering="crispEdges"/><rect fill="#121212" x="0" y="465.1" width="24.4" height="24.65" shape-rendering="crispEdges"/><rect fill="#121212" x="24.4" y="465.1" width="146.4" height="24.65" shape-rendering="crispEdges"/><rect fill="#121212" x="170.8" y="465.1" width="195.2" height="24.65" shape-rendering="crispEdges"/><rect fill="#121212" x="366" y="465.1" width="109.8" height="24.65" shape-rendering="crispEdges"/><rect fill="#121212" x="475.8" y="465.1" width="36.6" height="24.65" shape-rendering="crispEdges"/><rect fill="#121212" x="512.4" y="465.1" width="829.6" height="24.65" shape-rendering="crispEdges"/><rect fill="#121212" x="0" y="489.5" width="24.4" height="24.65" shape-rendering="crispEdges"/><rect fill="#121212" x="24.4" y="489.5" width="0" height="24.65" shape-rendering="crispEdges"/><rect fill="#121212" x="24.4" y="489.5" width="1317.6" height="24.65" shape-rendering="crispEdges"/><rect fill="#121212" x="0" y="513.9" width="1342" height="24.65" shape-rendering="crispEdges"/><rect fill="#121212" x="0" y="538.3" width="1342" height="24.65" shape-rendering="crispEdges"/><rect fill="#121212" x="0" y="562.7" width="1342" height="24.65" shape-rendering="crispEdges"/><rect fill="#121212" x="0" y="587.1" width="1342" height="24.65" shape-rendering="crispEdges"/><rect fill="#121212" x="0" y="611.5" width="1342" height="24.65" shape-rendering="crispEdges"/><rect fill="#121212" x="0" y="635.9" width="1342" height="24.65" shape-rendering="crispEdges"/><rect fill="#121212" x="0" y="660.3" width="1342" height="24.65" shape-rendering="crispEdges"/><rect fill="#121212" x="0" y="684.7" width="1342" height="24.65" shape-rendering="crispEdges"/><rect fill="#121212" x="0" y="709.1" width="1342" height="24.65" shape-rendering="crispEdges"/><rect fill="#121212" x="0" y="733.5" width="1342" height="24.65" shape-rendering="crispEdges"/><rect fill="#121212" x="0" y="757.9" width="1342" height="24.65" shape-rendering="crispEdges"/><rect fill="#121212" x="0" y="782.3" width="1342" height="24.65" shape-rendering="crispEdges"/><rect fill="#121212" x="0" y="806.7" width="1342" height="24.65" shape-rendering="crispEdges"/><rect fill="#121212" x="0" y="831.1" width="1342" height="24.65" shape-rendering="crispEdges"/><rect fill="#121212" x="0" y="855.5" width="1342" height="24.65" shape-rendering="crispEdges"/><rect fill="#121212" x="0" y="879.9" width="1342" height="24.65" shape-rendering="crispEdges"/><rect fill="#121212" x="0" y="904.3" width="12.2" height="24.65" shape-rendering="crispEdges"/><rect fill="#121212" x="12.2" y="904.3" width="0" height="24.65" shape-rendering="crispEdges"/><rect fill="#121212" x="12.2" y="904.3" width="1329.8" height="24.65" shape-rendering="crispEdges"/><rect fill="#121212" x="0" y="928.7" width="12.2" height="24.65" shape-rendering="crispEdges"/><rect fill="#2c2a44" x="12.2" y="928.7" width="36.6" height="24.65" shape-rendering="crispEdges"/><rect fill="#121212" x="48.8" y="928.7" width="73.2" height="24.65" shape-rendering="crispEdges"/><rect fill="#121212" x="122" y="928.7" width="24.4" height="24.65" shape-rendering="crispEdges"/><rect fill="#2c2a44" x="146.4" y="928.7" width="36.6" height="24.65" shape-rendering="crispEdges"/><rect fill="#121212" x="183" y="928.7" width="170.8" height="24.65" shape-rendering="crispEdges"/><rect fill="#121212" x="353.8" y="928.7" width="24.4" height="24.65" shape-rendering="crispEdges"/><rect fill="#2c2a44" x="378.2" y="928.7" width="36.6" height="24.65" shape-rendering="crispEdges"/><rect fill="#121212" x="414.8" y="928.7" width="195.2" height="24.65" shape-rendering="crispEdges"/><rect fill="#121212" x="610" y="928.7" width="24.4" height="24.65" shape-rendering="crispEdges"/><rect fill="#2c2a44" x="634.4" y="928.7" width="61" height="24.65" shape-rendering="crispEdges"/><rect fill="#121212" x="695.4" y="928.7" width="61" height="24.65" shape-rendering="crispEdges"/><rect fill="#121212" x="756.4" y="928.7" width="24.4" height="24.65" shape-rendering="crispEdges"/><rect fill="#2c2a44" x="780.8" y="928.7" width="36.6" height="24.65" shape-rendering="crispEdges"/><rect fill="#121212" x="817.4" y="928.7" width="61" height="24.65" shape-rendering="crispEdges"/><rect fill="#121212" x="878.4" y="928.7" width="24.4" height="24.65" shape-rendering="crispEdges"/><rect fill="#2c2a44" x="902.8" y="928.7" width="36.6" height="24.65" shape-rendering="crispEdges"/><rect fill="#121212" x="939.4" y="928.7" width="109.8" height="24.65" shape-rendering="crispEdges"/><rect fill="#121212" x="1049.2" y="928.7" width="24.4" height="24.65" shape-rendering="crispEdges"/><rect fill="#2c2a44" x="1073.6" y="928.7" width="36.6" height="24.65" shape-rendering="crispEdges"/><rect fill="#121212" x="1110.2" y="928.7" width="61" height="24.65" shape-rendering="crispEdges"/><rect fill="#121212" x="1171.2" y="928.7" width="24.4" height="24.65" shape-rendering="crispEdges"/><rect fill="#2c2a44" x="1195.6" y="928.7" width="36.6" height="24.65" shape-rendering="crispEdges"/><rect fill="#121212" x="1232.2" y="928.7" width="61" height="24.65" shape-rendering="crispEdges"/><rect fill="#121212" x="1293.2" y="928.7" width="48.8" height="24.65" shape-rendering="crispEdges"/><rect fill="#121212" x="0" y="953.1" width="1342" height="24.65" shape-rendering="crispEdges"/>
    <g class="terminal-2345630061-matrix">
    <text class="terminal-2345630061-r1" x="1342" y="20" textLength="12.2" clip-path="url(#terminal-2345630061-line-0)">
</text><text class="terminal-2345630061-r2" x="12.2" y="44.4" textLength="85.4" clip-path="url(#terminal-2345630061-line-1)">&#160;spike&#160;</text><text class="terminal-2345630061-r3" x="97.6" y="44.4" textLength="268.4" clip-path="url(#terminal-2345630061-line-1)">&#160;&#160;PFCM7_d0ephys_Block2</text><text class="terminal-2345630061-r5" x="951.6" y="44.4" textLength="378.2" clip-path="url(#terminal-2345630061-line-1)">tridesclous2&#160;·&#160;run&#160;c7184d&#160;·&#160;raw</text><text class="terminal-2345630061-r1" x="1342" y="44.4" textLength="12.2" clip-path="url(#terminal-2345630061-line-1)">
</text><text class="terminal-2345630061-r1" x="1342" y="68.8" textLength="12.2" clip-path="url(#terminal-2345630061-line-2)">
</text><text class="terminal-2345630061-r6" x="12.2" y="93.2" textLength="24.4" clip-path="url(#terminal-2345630061-line-3)">&#160;✓</text><text class="terminal-2345630061-r7" x="36.6" y="93.2" textLength="97.6" clip-path="url(#terminal-2345630061-line-3)">&#160;1&#160;Data&#160;</text><text class="terminal-2345630061-r8" x="134.2" y="93.2" textLength="97.6" clip-path="url(#terminal-2345630061-line-3)">────────</text><text class="terminal-2345630061-r6" x="231.8" y="93.2" textLength="24.4" clip-path="url(#terminal-2345630061-line-3)">&#160;✓</text><text class="terminal-2345630061-r7" x="256.2" y="93.2" textLength="109.8" clip-path="url(#terminal-2345630061-line-3)">&#160;2&#160;Probe&#160;</text><text class="terminal-2345630061-r8" x="366" y="93.2" textLength="97.6" clip-path="url(#terminal-2345630061-line-3)">────────</text><text class="terminal-2345630061-r6" x="463.6" y="93.2" textLength="24.4" clip-path="url(#terminal-2345630061-line-3)">&#160;✓</text><text class="terminal-2345630061-r7" x="488" y="93.2" textLength="97.6" clip-path="url(#terminal-2345630061-line-3)">&#160;3&#160;Sort&#160;</text><text class="terminal-2345630061-r8" x="585.6" y="93.2" textLength="97.6" clip-path="url(#terminal-2345630061-line-3)">────────</text><text class="terminal-2345630061-r9" x="683.2" y="93.2" textLength="24.4" clip-path="url(#terminal-2345630061-line-3)">&#160;·</text><text class="terminal-2345630061-r5" x="707.6" y="93.2" textLength="109.8" clip-path="url(#terminal-2345630061-line-3)">&#160;4&#160;Judge&#160;</text><text class="terminal-2345630061-r8" x="817.4" y="93.2" textLength="97.6" clip-path="url(#terminal-2345630061-line-3)">────────</text><text class="terminal-2345630061-r2" x="915" y="93.2" textLength="134.2" clip-path="url(#terminal-2345630061-line-3)">&#160;·&#160;5&#160;Apply&#160;</text><text class="terminal-2345630061-r8" x="1049.2" y="93.2" textLength="97.6" clip-path="url(#terminal-2345630061-line-3)">────────</text><text class="terminal-2345630061-r9" x="1146.8" y="93.2" textLength="24.4" clip-path="url(#terminal-2345630061-line-3)">&#160;·</text><text class="terminal-2345630061-r5" x="1171.2" y="93.2" textLength="109.8" clip-path="url(#terminal-2345630061-line-3)">&#160;6&#160;Share&#160;</text><text class="terminal-2345630061-r1" x="1342" y="93.2" textLength="12.2" clip-path="url(#terminal-2345630061-line-3)">
</text><text class="terminal-2345630061-r5" x="24.4" y="117.6" textLength="109.8" clip-path="url(#terminal-2345630061-line-4)">3&#160;streams</text><text class="terminal-2345630061-r5" x="244" y="117.6" textLength="134.2" clip-path="url(#terminal-2345630061-line-4)">16&#160;contacts</text><text class="terminal-2345630061-r5" x="475.8" y="117.6" textLength="97.6" clip-path="url(#terminal-2345630061-line-4)">12&#160;units</text><text class="terminal-2345630061-r5" x="695.4" y="117.6" textLength="48.8" clip-path="url(#terminal-2345630061-line-4)">0/12</text><text class="terminal-2345630061-r1" x="1342" y="117.6" textLength="12.2" clip-path="url(#terminal-2345630061-line-4)">
</text><text class="terminal-2345630061-r8" x="12.2" y="142" textLength="1317.6" clip-path="url(#terminal-2345630061-line-5)">────────────────────────────────────────────────────────────────────────────────────────────────────────────</text><text class="terminal-2345630061-r1" x="1342" y="142" textLength="12.2" clip-path="url(#terminal-2345630061-line-5)">
</text><text class="terminal-2345630061-r1" x="1342" y="166.4" textLength="12.2" clip-path="url(#terminal-2345630061-line-6)">
</text><text class="terminal-2345630061-r10" x="24.4" y="190.8" textLength="207.4" clip-path="url(#terminal-2345630061-line-7)">APPLY&#160;3&#160;DECISIONS</text><text class="terminal-2345630061-r3" x="231.8" y="190.8" textLength="390.4" clip-path="url(#terminal-2345630061-line-7)">&#160;&#160;&#160;to&#160;run&#160;20260819-035117-c7184d</text><text class="terminal-2345630061-r1" x="1342" y="190.8" textLength="12.2" clip-path="url(#terminal-2345630061-line-7)">
</text><text class="terminal-2345630061-r5" x="24.4" y="215.2" textLength="1281" clip-path="url(#terminal-2345630061-line-8)">The&#160;raw&#160;sort&#160;is&#160;never&#160;changed.&#160;Applying&#160;builds&#160;a&#160;curated&#160;copy&#160;beside&#160;it&#160;and&#160;re-scores&#160;every&#160;metric&#160;on&#160;it.</text><text class="terminal-2345630061-r1" x="1342" y="215.2" textLength="12.2" clip-path="url(#terminal-2345630061-line-8)">
</text><text class="terminal-2345630061-r1" x="1342" y="239.6" textLength="12.2" clip-path="url(#terminal-2345630061-line-9)">
</text><text class="terminal-2345630061-r11" x="24.4" y="264" textLength="73.2" clip-path="url(#terminal-2345630061-line-10)">BEFORE</text><text class="terminal-2345630061-r10" x="414.8" y="264" textLength="61" clip-path="url(#terminal-2345630061-line-10)">AFTER</text><text class="terminal-2345630061-r1" x="1342" y="264" textLength="12.2" clip-path="url(#terminal-2345630061-line-10)">
</text><text class="terminal-2345630061-r4" x="24.4" y="288.4" textLength="854" clip-path="url(#terminal-2345630061-line-11)">12&#160;units,&#160;raw&#160;sorter&#160;output&#160;&#160;&#160;&#160;&#160;12&#160;units&#160;·&#160;1&#160;good&#160;·&#160;1&#160;noise&#160;·&#160;1&#160;unsure</text><text class="terminal-2345630061-r1" x="1342" y="288.4" textLength="12.2" clip-path="url(#terminal-2345630061-line-11)">
</text><text class="terminal-2345630061-r5" x="24.4" y="312.8" textLength="390.4" clip-path="url(#terminal-2345630061-line-12)">no&#160;labels&#160;&#160;&#160;&#160;&#160;&#160;&#160;&#160;&#160;&#160;&#160;&#160;&#160;&#160;&#160;&#160;&#160;&#160;&#160;&#160;&#160;&#160;&#160;</text><text class="terminal-2345630061-r5" x="414.8" y="312.8" textLength="475.8" clip-path="url(#terminal-2345630061-line-12)">0&#160;merges&#160;·&#160;0&#160;splits&#160;·&#160;metrics&#160;re-scored</text><text class="terminal-2345630061-r1" x="1342" y="312.8" textLength="12.2" clip-path="url(#terminal-2345630061-line-12)">
</text><text class="terminal-2345630061-r1" x="1342" y="337.2" textLength="12.2" clip-path="url(#terminal-2345630061-line-13)">
</text><text class="terminal-2345630061-r12" x="24.4" y="361.6" textLength="195.2" clip-path="url(#terminal-2345630061-line-14)">Not&#160;applied&#160;yet.</text><text class="terminal-2345630061-r1" x="1342" y="361.6" textLength="12.2" clip-path="url(#terminal-2345630061-line-14)">
</text><text class="terminal-2345630061-r1" x="1342" y="386" textLength="12.2" clip-path="url(#terminal-2345630061-line-15)">
</text><text class="terminal-2345630061-r11" x="24.4" y="410.4" textLength="268.4" clip-path="url(#terminal-2345630061-line-16)">DECISIONS&#160;&#160;newest&#160;last</text><text class="terminal-2345630061-r1" x="1342" y="410.4" textLength="12.2" clip-path="url(#terminal-2345630061-line-16)">
</text><text class="terminal-2345630061-r5" x="24.4" y="434.8" textLength="146.4" clip-path="url(#terminal-2345630061-line-17)">&#160;&#160;03:53:36&#160;&#160;</text><text class="terminal-2345630061-r4" x="170.8" y="434.8" textLength="195.2" clip-path="url(#terminal-2345630061-line-17)">label&#160;&#160;u0&#160;&#160;&#160;&#160;&#160;&#160;&#160;</text><text class="terminal-2345630061-r13" x="366" y="434.8" textLength="109.8" clip-path="url(#terminal-2345630061-line-17)">good&#160;&#160;&#160;&#160;&#160;</text><text class="terminal-2345630061-r5" x="475.8" y="434.8" textLength="36.6" clip-path="url(#terminal-2345630061-line-17)">tui</text><text class="terminal-2345630061-r1" x="1342" y="434.8" textLength="12.2" clip-path="url(#terminal-2345630061-line-17)">
</text><text class="terminal-2345630061-r5" x="24.4" y="459.2" textLength="146.4" clip-path="url(#terminal-2345630061-line-18)">&#160;&#160;03:53:36&#160;&#160;</text><text class="terminal-2345630061-r4" x="170.8" y="459.2" textLength="195.2" clip-path="url(#terminal-2345630061-line-18)">label&#160;&#160;u1&#160;&#160;&#160;&#160;&#160;&#160;&#160;</text><text class="terminal-2345630061-r5" x="366" y="459.2" textLength="109.8" clip-path="url(#terminal-2345630061-line-18)">noise&#160;&#160;&#160;&#160;</text><text class="terminal-2345630061-r5" x="475.8" y="459.2" textLength="36.6" clip-path="url(#terminal-2345630061-line-18)">tui</text><text class="terminal-2345630061-r1" x="1342" y="459.2" textLength="12.2" clip-path="url(#terminal-2345630061-line-18)">
</text><text class="terminal-2345630061-r5" x="24.4" y="483.6" textLength="146.4" clip-path="url(#terminal-2345630061-line-19)">&#160;&#160;03:53:36&#160;&#160;</text><text class="terminal-2345630061-r4" x="170.8" y="483.6" textLength="195.2" clip-path="url(#terminal-2345630061-line-19)">label&#160;&#160;u4&#160;&#160;&#160;&#160;&#160;&#160;&#160;</text><text class="terminal-2345630061-r3" x="366" y="483.6" textLength="109.8" clip-path="url(#terminal-2345630061-line-19)">unsure&#160;&#160;&#160;</text><text class="terminal-2345630061-r5" x="475.8" y="483.6" textLength="36.6" clip-path="url(#terminal-2345630061-line-19)">tui</text><text class="terminal-2345630061-r1" x="1342" y="483.6" textLength="12.2" clip-path="url(#terminal-2345630061-line-19)">
</text><text class="terminal-2345630061-r1" x="1342" y="508" textLength="12.2" clip-path="url(#terminal-2345630061-line-20)">
</text><text class="terminal-2345630061-r1" x="1342" y="532.4" textLength="12.2" clip-path="url(#terminal-2345630061-line-21)">
</text><text class="terminal-2345630061-r1" x="1342" y="556.8" textLength="12.2" clip-path="url(#terminal-2345630061-line-22)">
</text><text class="terminal-2345630061-r1" x="1342" y="581.2" textLength="12.2" clip-path="url(#terminal-2345630061-line-23)">
</text><text class="terminal-2345630061-r1" x="1342" y="605.6" textLength="12.2" clip-path="url(#terminal-2345630061-line-24)">
</text><text class="terminal-2345630061-r1" x="1342" y="630" textLength="12.2" clip-path="url(#terminal-2345630061-line-25)">
</text><text class="terminal-2345630061-r1" x="1342" y="654.4" textLength="12.2" clip-path="url(#terminal-2345630061-line-26)">
</text><text class="terminal-2345630061-r1" x="1342" y="678.8" textLength="12.2" clip-path="url(#terminal-2345630061-line-27)">
</text><text class="terminal-2345630061-r1" x="1342" y="703.2" textLength="12.2" clip-path="url(#terminal-2345630061-line-28)">
</text><text class="terminal-2345630061-r1" x="1342" y="727.6" textLength="12.2" clip-path="url(#terminal-2345630061-line-29)">
</text><text class="terminal-2345630061-r1" x="1342" y="752" textLength="12.2" clip-path="url(#terminal-2345630061-line-30)">
</text><text class="terminal-2345630061-r1" x="1342" y="776.4" textLength="12.2" clip-path="url(#terminal-2345630061-line-31)">
</text><text class="terminal-2345630061-r1" x="1342" y="800.8" textLength="12.2" clip-path="url(#terminal-2345630061-line-32)">
</text><text class="terminal-2345630061-r1" x="1342" y="825.2" textLength="12.2" clip-path="url(#terminal-2345630061-line-33)">
</text><text class="terminal-2345630061-r1" x="1342" y="849.6" textLength="12.2" clip-path="url(#terminal-2345630061-line-34)">
</text><text class="terminal-2345630061-r1" x="1342" y="874" textLength="12.2" clip-path="url(#terminal-2345630061-line-35)">
</text><text class="terminal-2345630061-r1" x="1342" y="898.4" textLength="12.2" clip-path="url(#terminal-2345630061-line-36)">
</text><text class="terminal-2345630061-r1" x="1342" y="922.8" textLength="12.2" clip-path="url(#terminal-2345630061-line-37)">
</text><text class="terminal-2345630061-r14" x="12.2" y="947.2" textLength="36.6" clip-path="url(#terminal-2345630061-line-38)">&#160;↵&#160;</text><text class="terminal-2345630061-r3" x="48.8" y="947.2" textLength="73.2" clip-path="url(#terminal-2345630061-line-38)">&#160;apply</text><text class="terminal-2345630061-r14" x="146.4" y="947.2" textLength="36.6" clip-path="url(#terminal-2345630061-line-38)">&#160;y&#160;</text><text class="terminal-2345630061-r3" x="183" y="947.2" textLength="170.8" clip-path="url(#terminal-2345630061-line-38)">&#160;export&#160;to&#160;Phy</text><text class="terminal-2345630061-r14" x="378.2" y="947.2" textLength="36.6" clip-path="url(#terminal-2345630061-line-38)">&#160;i&#160;</text><text class="terminal-2345630061-r3" x="414.8" y="947.2" textLength="195.2" clip-path="url(#terminal-2345630061-line-38)">&#160;import&#160;from&#160;Phy</text><text class="terminal-2345630061-r14" x="634.4" y="947.2" textLength="61" clip-path="url(#terminal-2345630061-line-38)">&#160;esc&#160;</text><text class="terminal-2345630061-r3" x="695.4" y="947.2" textLength="61" clip-path="url(#terminal-2345630061-line-38)">&#160;home</text><text class="terminal-2345630061-r14" x="780.8" y="947.2" textLength="36.6" clip-path="url(#terminal-2345630061-line-38)">&#160;/&#160;</text><text class="terminal-2345630061-r3" x="817.4" y="947.2" textLength="61" clip-path="url(#terminal-2345630061-line-38)">&#160;find</text><text class="terminal-2345630061-r14" x="902.8" y="947.2" textLength="36.6" clip-path="url(#terminal-2345630061-line-38)">&#160;,&#160;</text><text class="terminal-2345630061-r3" x="939.4" y="947.2" textLength="109.8" clip-path="url(#terminal-2345630061-line-38)">&#160;settings</text><text class="terminal-2345630061-r14" x="1073.6" y="947.2" textLength="36.6" clip-path="url(#terminal-2345630061-line-38)">&#160;?&#160;</text><text class="terminal-2345630061-r3" x="1110.2" y="947.2" textLength="61" clip-path="url(#terminal-2345630061-line-38)">&#160;help</text><text class="terminal-2345630061-r14" x="1195.6" y="947.2" textLength="36.6" clip-path="url(#terminal-2345630061-line-38)">&#160;q&#160;</text><text class="terminal-2345630061-r3" x="1232.2" y="947.2" textLength="61" clip-path="url(#terminal-2345630061-line-38)">&#160;quit</text><text class="terminal-2345630061-r1" x="1342" y="947.2" textLength="12.2" clip-path="url(#terminal-2345630061-line-38)">
</text>
    </g>
    </g>
</svg>
